<svg xmlns="http://www.w3.org/2000/svg" width="649" height="649" viewBox="0 0 649 649">
<g>
<path d="M 288.18 449.02 C285.98,449.95 284.05,450.29 283.96,449.75 C283.94,449.61 283.87,443.78 283.81,436.79 C283.68,423.14 284.12,421.69 288.73,420.53 C290.19,420.17 292.76,418.72 294.44,417.33 C298.35,414.09 317.10,403.05 318.75,403.02 C319.44,403.01 320.00,402.55 320.00,402.00 C320.00,401.45 320.52,401.00 321.17,401.00 C321.81,401.00 325.58,398.98 329.55,396.50 C333.52,394.02 337.47,392.00 338.33,392.00 C339.18,392.00 340.17,391.53 340.53,390.96 C341.23,389.81 347.56,385.61 353.00,382.68 C359.35,379.25 361.03,377.24 366.02,367.10 C367.86,363.36 368.13,361.36 367.84,353.60 C367.53,345.23 367.23,344.08 364.11,339.29 C360.76,334.16 355.88,330.15 349.00,326.88 C347.08,325.96 343.95,324.04 342.06,322.61 C340.16,321.17 338.22,320.00 337.73,320.00 C336.19,320.00 323.62,312.17 320.34,309.17 C316.85,305.98 313.88,300.70 311.97,294.32 C310.63,289.80 311.51,283.94 314.60,277.00 C316.52,272.69 324.28,266.42 333.25,261.93 C336.96,260.07 340.00,258.18 340.00,257.72 C340.00,257.27 341.69,256.14 343.75,255.20 C345.81,254.27 350.99,251.31 355.26,248.64 C365.69,242.11 366.00,242.40 366.00,258.44 L 366.00 270.64 L 362.73 274.57 C353.39,285.78 352.00,289.03 352.00,299.69 C352.00,305.01 352.54,308.14 353.93,310.85 C356.45,315.81 363.83,324.00 365.76,324.00 C366.60,324.00 371.16,326.41 375.89,329.36 C384.24,334.55 393.76,340.20 398.46,342.75 C404.41,345.97 409.24,355.77 409.18,364.48 C409.10,375.91 403.62,383.22 389.28,391.01 C385.00,393.34 380.60,396.04 379.50,397.01 C378.40,397.98 376.38,399.10 375.00,399.50 C373.62,399.90 371.07,401.30 369.32,402.62 C367.57,403.93 365.48,405.00 364.69,405.00 C363.89,405.00 362.66,405.71 361.94,406.58 C361.21,407.45 358.35,409.30 355.56,410.69 C352.78,412.08 349.15,414.22 347.50,415.43 C345.85,416.64 342.25,418.76 339.50,420.14 C336.75,421.51 332.26,424.08 329.52,425.84 C326.78,427.60 322.50,430.03 320.02,431.23 C317.53,432.43 313.99,434.43 312.14,435.68 C310.30,436.93 306.47,439.11 303.64,440.51 C300.81,441.91 296.70,444.18 294.50,445.55 C292.30,446.92 289.46,448.48 288.18,449.02 Z" fill="rgb(11,170,248)"/>
<path d="M 290.69 403.96 C286.55,406.18 282.90,408.00 282.58,408.00 C282.26,408.00 282.00,400.59 282.00,391.53 L 282.00 375.06 L 285.03 372.82 C286.70,371.59 289.51,368.32 291.28,365.56 C294.20,361.01 294.52,359.75 294.69,352.02 C294.80,346.90 294.32,341.90 293.50,339.50 C291.97,335.08 284.28,327.47 278.21,324.39 C276.17,323.35 271.01,320.38 266.73,317.79 C262.46,315.20 257.38,312.33 255.45,311.41 C250.75,309.18 242.27,301.46 241.47,298.71 C241.13,297.49 240.16,294.99 239.32,293.14 C237.50,289.11 237.79,274.36 239.72,273.17 C240.38,272.76 241.61,270.77 242.46,268.75 C243.59,266.05 245.84,263.87 250.94,260.54 C254.75,258.05 258.15,255.56 258.50,255.01 C258.84,254.45 259.88,253.99 260.81,253.98 C261.74,253.97 263.62,253.08 265.00,252.00 C266.38,250.92 268.26,250.03 269.18,250.02 C270.10,250.01 271.45,249.41 272.18,248.69 C274.76,246.15 281.49,242.00 283.05,242.00 C283.92,242.00 287.65,239.98 291.34,237.50 C295.03,235.02 298.64,233.00 299.37,233.00 C300.10,233.00 301.48,232.13 302.44,231.07 C303.40,230.01 307.18,227.67 310.84,225.86 C314.50,224.06 319.75,221.16 322.50,219.43 C325.25,217.69 330.42,214.80 334.00,212.99 C337.58,211.19 341.85,208.73 343.50,207.52 C345.15,206.30 349.65,203.59 353.50,201.48 C357.35,199.38 361.69,196.78 363.15,195.71 C367.87,192.26 368.21,193.24 368.08,210.03 L 367.96 225.50 L 365.23 227.76 C363.73,229.01 360.48,231.00 358.00,232.19 C355.52,233.37 352.19,235.42 350.59,236.74 C348.99,238.06 344.27,240.93 340.09,243.12 C329.83,248.50 313.63,257.98 313.01,258.97 C312.73,259.42 309.48,261.20 305.78,262.95 C288.50,271.10 281.68,279.63 281.76,292.98 C281.83,302.82 284.60,308.53 292.32,314.71 C295.72,317.43 300.30,320.53 302.50,321.60 C304.70,322.68 309.08,325.22 312.24,327.26 C315.39,329.29 320.68,332.32 323.99,333.99 C334.48,339.29 340.77,350.73 339.39,361.98 C338.07,372.68 333.64,379.04 323.25,385.18 C301.56,397.98 297.66,400.23 290.69,403.96 Z" fill="rgb(48,48,50)"/>
<path d="M 290.69 403.96 C297.66,400.23 301.56,397.98 323.25,385.18 C333.64,379.04 338.07,372.68 339.39,361.98 C340.77,350.73 334.48,339.29 323.99,333.99 C320.68,332.32 315.39,329.29 312.24,327.26 C309.08,325.22 304.70,322.68 302.50,321.60 C300.30,320.53 295.72,317.43 292.32,314.71 C284.93,308.80 282.07,303.31 281.79,294.21 C281.96,294.66 282.20,295.19 282.48,295.83 C283.37,297.85 284.79,300.74 285.61,302.25 C286.44,303.77 287.29,305.90 287.50,307.00 C287.98,309.47 292.57,313.75 296.25,315.15 C297.76,315.72 299.00,316.60 299.00,317.10 C299.00,317.59 299.67,318.00 300.50,318.00 C301.33,318.00 302.00,318.45 302.00,319.00 C302.00,319.55 302.67,320.00 303.50,320.00 C304.33,320.00 305.00,320.67 305.00,321.50 C305.00,323.08 305.82,323.32 310.16,323.04 C311.63,322.94 313.20,323.47 313.66,324.21 C314.12,324.95 317.09,327.10 320.25,328.99 C323.41,330.88 326.00,332.78 326.00,333.22 C326.00,334.26 335.96,344.00 337.03,344.00 C337.49,344.00 338.17,345.01 338.55,346.25 C338.93,347.49 339.89,349.25 340.70,350.16 C341.57,351.17 342.22,354.22 342.33,357.83 C342.47,362.71 342.10,364.27 340.37,366.17 C337.73,369.07 334.52,375.85 335.38,376.71 C335.73,377.06 335.00,378.47 333.76,379.84 C332.52,381.20 332.06,382.00 332.75,381.60 C333.44,381.21 334.00,381.36 334.00,381.94 C334.00,382.52 334.64,383.00 335.42,383.00 C336.20,383.00 337.00,383.51 337.21,384.13 C337.63,385.38 343.34,382.88 344.55,380.92 C344.92,380.32 347.14,379.01 349.49,378.00 C355.32,375.51 360.66,369.91 362.13,364.76 C362.80,362.42 363.67,360.05 364.07,359.50 C365.43,357.60 362.31,346.55 359.06,341.73 C355.37,336.28 350.47,333.63 344.67,333.95 C341.21,334.14 340.85,333.94 341.03,331.83 C341.39,327.46 341.06,327.00 337.56,327.00 C335.67,327.00 333.83,326.53 333.47,325.95 C333.06,325.28 333.85,325.07 335.66,325.37 C337.22,325.63 339.22,325.87 340.10,325.92 C340.98,325.96 343.08,327.32 344.77,328.93 C346.46,330.55 350.35,333.05 353.42,334.51 C356.49,335.96 359.00,337.70 359.00,338.38 C359.00,339.06 360.12,341.14 361.50,343.00 C362.88,344.86 364.00,347.51 364.00,348.87 C364.00,350.24 364.55,352.87 365.22,354.72 C366.17,357.36 366.17,358.50 365.22,360.03 C364.55,361.10 364.00,362.46 364.00,363.05 C364.00,363.64 363.05,366.34 361.89,369.04 C360.24,372.86 358.76,374.52 355.26,376.48 C352.78,377.87 350.17,379.00 349.47,379.00 C348.76,379.00 346.35,380.46 344.10,382.25 C336.06,388.64 334.42,389.67 328.50,391.97 C325.20,393.26 321.19,395.48 319.59,396.91 L 316.67 399.50 L 318.59 396.81 C319.64,395.33 323.49,392.73 327.14,391.03 C332.74,388.43 333.76,387.57 333.64,385.56 C333.56,384.24 332.77,382.71 331.88,382.16 C330.62,381.37 330.03,381.63 329.26,383.32 C327.94,386.19 318.46,391.28 315.93,390.48 C314.57,390.05 314.00,390.34 314.00,391.46 C314.00,392.34 313.21,393.36 312.25,393.73 C311.29,394.09 309.87,395.01 309.11,395.76 C306.08,398.76 302.66,400.49 302.25,399.24 C301.82,397.95 297.79,402.26 296.74,405.14 C296.06,407.01 288.28,408.19 287.59,406.53 C287.35,405.96 287.12,406.22 287.08,407.10 C287.04,407.97 286.18,409.43 285.17,410.35 C284.17,411.26 283.04,412.00 282.67,412.00 C282.63,412.00 282.58,412.00 282.54,412.01 C282.47,412.01 282.41,412.02 282.35,412.00 C281.90,411.86 281.91,410.24 281.98,395.57 C281.99,394.53 281.99,393.42 282.00,392.25 C282.00,392.10 282.00,391.95 282.00,391.80 C282.01,400.74 282.26,408.00 282.58,408.00 C282.90,408.00 286.55,406.18 290.69,403.96 ZM 319.39 254.80 C325.19,251.31 333.77,246.44 340.09,243.12 C344.27,240.93 348.99,238.06 350.59,236.74 C352.19,235.42 355.52,233.37 358.00,232.19 C360.48,231.00 363.73,229.01 365.23,227.76 L 367.96 225.50 L 368.06 212.99 C368.13,218.01 368.43,221.00 368.88,221.00 C369.42,221.00 370.16,221.92 370.52,223.05 C371.33,225.62 368.59,230.00 366.17,230.00 C365.18,230.00 363.38,230.93 362.17,232.06 C360.96,233.19 358.58,234.69 356.90,235.40 C354.03,236.61 353.94,236.80 355.51,238.37 C356.73,239.59 358.20,239.90 360.85,239.50 C364.38,238.97 364.32,239.04 359.00,241.90 C355.98,243.53 351.92,245.62 350.00,246.54 C348.08,247.46 345.69,249.06 344.71,250.10 C343.73,251.15 341.88,252.00 340.62,252.00 C339.35,252.00 337.50,252.90 336.50,254.00 C335.50,255.10 334.14,256.00 333.47,256.00 C332.80,256.00 331.70,256.66 331.03,257.47 C330.36,258.27 327.04,260.48 323.65,262.38 C316.72,266.26 314.13,268.75 311.13,274.43 C309.59,277.35 309.34,278.70 310.15,279.68 C310.83,280.50 310.87,281.00 310.24,281.00 C308.67,281.00 306.61,286.95 306.70,291.23 C306.78,294.98 306.72,295.06 304.89,293.40 C302.52,291.25 302.53,290.56 304.98,287.21 C307.18,284.20 308.10,279.39 306.42,279.69 C305.82,279.80 305.33,279.24 305.33,278.44 C305.33,277.65 305.90,277.00 306.59,277.00 C307.27,277.00 308.75,275.54 309.86,273.75 C312.65,269.26 319.78,262.55 324.11,260.34 C329.81,257.43 336.05,253.04 336.63,251.53 C336.93,250.75 338.45,250.18 340.10,250.22 C341.72,250.27 344.05,249.42 345.27,248.34 C346.50,247.26 348.77,245.84 350.32,245.18 C352.59,244.22 353.08,243.44 352.82,241.24 C352.65,239.73 352.08,238.20 351.57,237.83 C350.17,236.83 343.00,241.26 343.27,242.96 C343.51,244.49 339.82,246.73 336.15,247.29 C334.97,247.48 332.77,248.78 331.25,250.20 C327.44,253.77 321.90,256.46 321.09,255.15 C320.75,254.60 320.12,254.48 319.39,254.80 ZM 288.33 455.97 C282.86,458.39 281.64,458.47 280.01,456.51 C279.23,455.57 277.90,455.24 276.39,455.62 C274.25,456.15 274.00,455.88 274.00,453.11 C274.00,450.67 274.43,450.00 276.00,450.00 C278.09,450.00 278.28,448.09 278.46,425.11 C278.49,420.80 278.90,419.51 280.50,418.61 C285.42,415.87 287.95,413.80 287.73,412.69 C287.60,412.00 288.96,411.36 291.00,411.18 C292.92,411.00 295.40,410.04 296.50,409.04 C297.60,408.04 299.43,406.95 300.57,406.60 C301.71,406.26 303.54,405.19 304.62,404.24 C307.46,401.74 310.73,400.00 312.56,400.00 C313.65,400.00 313.26,400.71 311.33,402.25 C307.43,405.35 302.50,408.00 300.63,408.00 C299.77,408.00 298.59,408.90 298.00,410.00 C297.31,411.30 295.91,412.00 294.02,412.00 C292.29,412.00 290.57,412.77 289.77,413.91 C289.04,414.96 286.65,416.65 284.47,417.66 C282.29,418.67 280.24,419.85 279.93,420.27 C278.98,421.55 280.14,427.00 281.36,427.02 C282.18,427.03 282.19,427.24 281.40,427.77 C280.76,428.19 280.05,433.60 279.70,440.70 C279.16,451.74 279.29,453.13 281.00,455.20 L 282.90 457.50 L 290.70 453.50 C297.84,449.84 301.06,447.77 310.91,440.51 C312.79,439.13 315.26,438.00 316.41,437.99 C317.56,437.99 319.80,437.31 321.38,436.49 C323.94,435.15 324.12,435.15 323.01,436.49 C322.32,437.32 321.15,438.00 320.40,438.00 C318.66,438.00 315.63,442.59 316.47,443.96 C317.30,445.30 315.42,445.30 312.91,443.95 C309.90,442.34 301.06,447.43 300.31,451.21 C299.69,454.32 298.00,456.04 298.00,453.56 C298.00,451.85 294.49,451.39 293.52,452.97 C293.19,453.51 290.85,454.86 288.33,455.97 ZM 294.40 344.29 C294.02,342.69 293.40,341.56 292.40,340.49 C291.17,339.16 289.89,337.24 289.57,336.24 C288.95,334.27 280.47,327.38 278.00,326.83 C277.17,326.65 274.48,325.10 272.00,323.38 C269.52,321.67 265.70,319.65 263.50,318.91 C261.30,318.17 257.41,315.86 254.86,313.78 C252.31,311.70 249.36,310.00 248.30,310.00 C245.63,310.00 240.68,304.72 242.05,303.35 C242.71,302.69 242.56,301.21 241.88,299.59 C243.80,302.84 251.19,309.39 255.45,311.41 C257.38,312.33 262.46,315.20 266.73,317.79 C271.01,320.38 276.17,323.35 278.21,324.39 C284.28,327.47 291.97,335.08 293.50,339.50 C293.88,340.62 294.19,342.30 294.40,344.29 ZM 365.29 194.35 C364.70,194.61 364.00,195.09 363.15,195.71 C361.69,196.78 357.35,199.38 353.50,201.48 C349.65,203.59 345.15,206.30 343.50,207.52 C341.85,208.73 337.58,211.19 334.00,212.99 C330.42,214.80 325.25,217.69 322.50,219.43 C319.75,221.16 314.50,224.06 310.84,225.86 C308.73,226.90 306.58,228.12 304.95,229.17 C306.49,228.10 308.26,227.02 309.55,226.41 C311.45,225.51 313.56,223.59 314.25,222.14 C315.35,219.82 321.23,216.01 329.75,212.08 C338.62,208.00 341.01,206.74 345.00,204.05 C347.48,202.38 350.27,201.01 351.21,201.00 C352.16,201.00 353.39,200.14 353.96,199.08 C354.52,198.02 356.56,196.64 358.49,196.00 C360.42,195.37 362.00,194.40 362.00,193.86 C362.00,193.32 362.56,193.23 363.25,193.65 C363.71,193.94 364.51,194.20 365.29,194.35 ZM 281.79 291.32 C282.26,279.26 288.84,271.21 304.41,263.60 C303.99,264.05 303.54,264.72 303.16,265.56 C302.46,267.08 300.15,268.93 297.47,270.12 C294.99,271.22 293.13,272.43 293.35,272.81 C293.57,273.19 292.83,274.40 291.72,275.50 C290.60,276.60 290.03,276.90 290.45,276.18 C291.06,275.11 290.84,275.08 289.31,276.04 C287.51,277.16 285.00,283.24 285.00,286.48 C285.00,287.32 284.07,288.93 282.92,290.08 C282.42,290.58 282.05,290.97 281.79,291.32 ZM 282.00 387.79 C281.96,379.14 281.63,375.00 281.01,375.00 C279.06,375.00 281.88,371.11 285.00,369.50 C288.23,367.83 289.61,365.82 290.15,362.00 C290.34,360.62 291.06,358.91 291.75,358.18 C292.44,357.45 293.00,356.21 293.00,355.43 C293.00,354.64 293.47,354.00 294.05,354.00 C294.31,354.00 294.52,353.64 294.66,352.98 C294.49,359.87 294.08,361.21 291.28,365.56 C289.51,368.32 286.70,371.59 285.03,372.82 L 282.00 375.06 ZM 305.66 263.00 C305.70,262.98 305.74,262.96 305.78,262.95 C309.48,261.20 312.73,259.42 313.01,258.97 C313.23,258.62 315.47,257.17 318.72,255.20 C318.13,255.67 317.92,256.25 318.24,256.58 C318.62,256.95 318.40,258.22 317.75,259.38 C317.10,260.55 316.67,261.84 316.79,262.25 C316.90,262.66 316.66,262.93 316.25,262.84 C314.73,262.50 310.03,264.24 310.48,264.96 C310.73,265.37 309.83,265.50 308.47,265.24 C307.11,264.98 306.00,264.37 306.00,263.88 C306.00,263.39 305.87,263.10 305.66,263.00 ZM 361.00 287.00 C361.00,288.04 360.47,289.21 359.83,289.61 C359.03,290.10 358.87,289.77 359.33,288.58 C359.70,287.62 360.00,285.93 360.00,284.82 C360.00,283.65 360.84,282.59 362.00,282.29 C363.10,282.00 364.00,281.08 364.00,280.25 C364.00,279.41 365.12,277.69 366.50,276.41 C369.42,273.71 369.66,274.06 367.33,277.62 C366.38,279.07 366.05,280.46 366.58,280.84 C368.07,281.91 368.21,284.25 366.84,285.10 C366.14,285.53 365.01,285.42 364.33,284.86 C362.71,283.52 361.00,284.62 361.00,287.00 ZM 386.50 329.28 L 388.50 329.77 L 386.50 329.82 C383.43,329.90 380.00,328.23 380.00,326.64 C380.00,325.08 377.92,324.00 374.89,324.00 C373.81,324.00 372.68,323.34 372.38,322.54 C372.07,321.73 370.92,320.79 369.83,320.45 C368.74,320.10 368.09,319.57 368.39,319.27 C368.69,318.97 370.10,319.49 371.53,320.43 C372.96,321.36 375.11,322.05 376.31,321.95 C381.05,321.58 382.00,321.98 382.00,324.38 C382.00,326.98 383.41,328.52 386.50,329.28 ZM 302.36 231.15 C301.40,232.18 300.08,233.00 299.37,233.00 C298.64,233.00 295.03,235.02 291.34,237.50 C287.65,239.98 283.92,242.00 283.05,242.00 C282.80,242.00 282.43,242.10 281.96,242.29 C283.15,241.54 283.96,240.76 283.97,240.30 C284.03,237.52 295.53,231.50 298.56,232.66 C299.23,232.92 300.84,232.26 302.36,231.15 ZM 359.00 298.00 C357.64,298.00 357.02,298.88 356.72,301.25 L 356.32 304.50 L 356.16 301.07 C356.00,297.71 357.87,290.99 358.95,291.01 C359.88,291.02 361.98,296.23 361.41,297.14 C361.12,297.61 360.04,298.00 359.00,298.00 ZM 241.48 298.74 C240.72,297.26 239.57,295.74 238.25,294.68 C236.02,292.87 235.18,290.00 236.89,290.00 C237.35,290.00 237.87,286.90 238.10,282.93 C238.08,287.02 238.47,291.25 239.32,293.14 C240.16,294.99 241.13,297.49 241.47,298.71 C241.48,298.72 241.48,298.73 241.48,298.74 ZM 360.82 358.67 C360.48,361.50 358.63,362.83 357.53,361.04 C356.52,359.42 357.95,356.00 359.63,356.00 C360.67,356.00 361.04,356.82 360.82,358.67 ZM 309.49 301.45 C310.84,304.72 311.83,307.50 311.70,307.64 C310.87,308.46 307.00,300.85 307.02,298.44 C307.04,295.99 307.45,296.48 309.49,301.45 ZM 411.49 389.13 C410.34,392.95 408.80,393.91 409.17,390.58 C409.35,388.97 410.11,387.45 410.85,387.21 C411.86,386.88 412.03,387.37 411.49,389.13 ZM 368.10 203.81 C368.06,198.45 367.84,195.68 367.12,194.62 C367.97,195.10 368.14,196.95 368.10,203.81 ZM 272.76 248.16 C272.55,248.34 272.35,248.52 272.18,248.69 C271.45,249.41 270.10,250.01 269.18,250.02 C268.26,250.03 266.38,250.92 265.00,252.00 C266.38,250.92 268.22,250.03 269.09,250.02 C269.82,250.01 271.35,249.22 272.76,248.16 ZM 276.65 245.25 C275.79,245.82 274.94,246.41 274.18,246.99 C274.89,246.44 275.75,245.83 276.65,245.25 Z" fill="rgb(250,252,252)"/>
<path d="M 360.82 358.67 C360.95,357.59 360.87,356.85 360.58,356.43 C361.05,356.72 361.59,357.13 362.18,357.66 C363.03,358.43 363.90,358.93 364.30,358.92 C364.25,359.16 364.17,359.36 364.07,359.50 C363.67,360.05 362.80,362.42 362.13,364.76 C360.66,369.91 355.32,375.51 349.49,378.00 C347.14,379.01 344.92,380.32 344.55,380.92 C343.34,382.88 337.63,385.38 337.21,384.13 C337.00,383.51 336.20,383.00 335.42,383.00 C334.99,383.00 334.61,382.86 334.35,382.63 C336.02,383.75 343.31,380.43 345.66,377.07 C346.52,375.85 348.22,375.00 349.81,375.00 C351.70,375.00 353.35,373.93 355.38,371.39 C357.87,368.27 358.19,367.17 357.75,363.14 C357.67,362.41 357.61,361.74 357.58,361.12 C358.68,362.79 360.49,361.46 360.82,358.67 ZM 361.00 287.00 C361.00,284.62 362.71,283.52 364.33,284.86 C365.01,285.42 366.14,285.53 366.84,285.10 C367.59,284.64 367.89,283.72 367.75,282.81 C367.94,283.67 367.81,284.53 367.28,284.91 C365.52,286.18 364.00,291.32 364.00,296.05 C364.00,299.69 363.62,301.00 362.56,301.00 C361.77,301.00 360.84,300.55 360.50,300.00 C359.41,298.24 357.00,298.93 357.00,301.00 C357.00,302.10 357.58,303.00 358.28,303.00 C359.49,303.00 362.63,307.35 364.21,311.21 C365.03,313.22 363.95,314.21 362.15,313.09 C360.59,312.13 357.74,306.53 356.55,302.65 L 356.72 301.25 C357.02,298.88 357.64,298.00 359.00,298.00 C360.04,298.00 361.12,297.61 361.41,297.14 C361.97,296.24 359.91,291.09 358.97,291.01 L 358.98 291.00 C359.24,290.75 359.39,290.51 359.51,289.77 C359.60,289.74 359.71,289.68 359.83,289.61 C360.47,289.21 361.00,288.04 361.00,287.00 ZM 277.94 446.22 C277.99,445.02 278.00,443.44 278.00,441.37 C278.00,436.62 277.46,430.94 276.81,428.74 C275.77,425.28 275.83,424.60 277.29,423.53 C278.21,422.85 278.69,422.02 278.34,421.68 C278.00,421.33 278.23,420.43 278.85,419.68 C279.47,418.93 279.73,418.06 279.41,417.74 C278.07,416.40 281.19,413.00 283.79,412.97 C285.28,412.95 287.30,412.33 288.28,411.59 C289.92,410.34 289.93,410.19 288.38,409.59 C287.42,409.23 285.92,409.67 284.85,410.64 C284.54,410.92 284.22,411.16 283.92,411.35 C284.32,411.07 284.75,410.72 285.17,410.35 C286.18,409.43 287.04,407.97 287.08,407.10 C287.12,406.22 287.35,405.96 287.59,406.53 C288.28,408.19 296.06,407.01 296.74,405.14 C297.24,403.78 298.40,402.10 299.53,400.84 C295.27,406.05 295.39,410.03 299.70,405.38 C301.26,403.70 302.78,402.97 304.05,403.30 C305.12,403.58 306.00,403.40 306.00,402.91 C306.00,402.41 306.67,402.00 307.50,402.00 C307.53,402.00 307.56,402.00 307.59,402.00 C306.60,402.63 305.59,403.39 304.62,404.24 C303.54,405.19 301.71,406.26 300.57,406.60 C299.43,406.95 297.60,408.04 296.50,409.04 C295.40,410.04 292.92,411.00 291.00,411.18 C288.96,411.36 287.60,412.00 287.73,412.69 C287.95,413.80 285.42,415.87 280.50,418.61 C278.90,419.51 278.49,420.80 278.46,425.11 C278.37,436.65 278.28,442.88 277.94,446.22 ZM 288.33 455.97 C290.85,454.86 293.19,453.51 293.52,452.97 C294.49,451.39 298.00,451.85 298.00,453.56 C298.00,454.51 298.25,454.84 298.59,454.72 C297.69,455.49 296.29,456.11 294.00,456.96 C292.08,457.67 289.31,459.59 287.85,461.22 C284.51,464.95 281.63,464.64 281.16,460.49 C280.96,458.72 280.42,457.19 279.71,456.20 C279.81,456.29 279.91,456.40 280.01,456.51 C281.64,458.47 282.86,458.39 288.33,455.97 ZM 407.09 394.45 C400.65,397.78 398.37,395.53 403.47,390.89 C405.41,389.12 407.00,386.94 407.00,386.03 C407.00,385.12 407.63,383.52 408.39,382.48 C409.70,380.69 409.85,380.81 410.84,384.37 C411.11,385.35 411.27,386.26 411.34,387.11 C411.21,387.11 411.05,387.15 410.85,387.21 C410.11,387.45 409.35,388.97 409.17,390.58 C409.01,392.06 409.22,392.70 409.61,392.60 C408.96,393.31 408.12,393.92 407.09,394.45 ZM 386.50 329.28 C383.41,328.52 382.00,326.98 382.00,324.38 C382.00,323.17 381.76,322.47 380.91,322.12 C381.38,322.24 381.71,322.40 381.84,322.58 C382.20,323.09 385.51,325.03 389.19,326.90 C393.96,329.33 396.23,331.14 397.08,333.19 C398.85,337.46 397.65,337.58 393.22,333.58 C391.04,331.61 388.33,330.00 387.19,330.00 C386.31,330.00 385.38,329.87 384.49,329.64 C385.15,329.77 385.83,329.84 386.50,329.82 L 388.50 329.77 ZM 343.57 247.11 C343.78,247.45 343.90,247.70 344.10,247.81 C344.52,248.06 345.29,247.68 348.11,246.32 L 348.30 246.22 C347.17,246.89 346.03,247.68 345.27,248.34 C344.05,249.42 341.72,250.27 340.10,250.22 C338.71,250.18 337.41,250.58 336.86,251.17 C336.95,250.93 337.00,250.68 337.00,250.45 C337.00,247.91 333.92,248.00 330.84,250.57 C330.98,250.45 331.12,250.32 331.25,250.20 C332.77,248.78 334.97,247.48 336.15,247.29 C339.82,246.73 343.51,244.49 343.27,242.96 C343.10,241.87 346.00,239.65 348.47,238.46 C348.40,238.65 348.41,238.85 348.54,239.06 C349.68,240.92 347.71,245.03 345.40,245.62 C344.09,245.94 343.26,246.62 343.57,247.11 ZM 317.44 262.90 C317.86,263.59 320.01,262.79 322.13,261.53 C317.86,264.40 312.26,269.89 309.86,273.75 C308.75,275.54 307.27,277.00 306.59,277.00 C305.90,277.00 305.33,277.65 305.33,278.44 C305.33,279.24 305.82,279.80 306.42,279.69 C308.10,279.39 307.18,284.20 304.98,287.21 C304.28,288.17 303.78,288.91 303.47,289.53 C303.58,288.44 303.88,286.95 304.34,284.73 C305.11,281.07 305.50,277.83 305.20,277.54 C304.91,277.24 305.38,277.00 306.25,277.00 C307.12,277.00 308.78,275.47 309.93,273.61 C311.61,270.90 311.83,269.68 311.04,267.61 C310.33,265.74 310.37,265.00 311.19,265.00 C311.82,265.00 312.12,264.79 311.86,264.53 C311.71,264.38 311.33,264.34 310.82,264.38 C311.91,263.59 315.06,262.58 316.25,262.84 C316.58,262.91 316.81,262.75 316.82,262.47 C317.08,262.53 317.30,262.68 317.44,262.90 ZM 335.36 376.69 C334.56,375.76 337.75,369.05 340.37,366.17 C342.10,364.27 342.47,362.71 342.33,357.83 C342.29,356.60 342.19,355.43 342.04,354.38 C342.61,357.63 342.70,361.67 341.98,363.56 C341.21,365.58 341.51,366.19 343.98,367.65 C347.39,369.66 347.03,371.00 343.06,371.00 C341.08,371.00 340.08,371.60 339.71,373.00 C339.42,374.10 338.13,375.42 336.84,375.93 C336.10,376.23 335.58,376.51 335.36,376.69 ZM 317.36 316.79 C315.55,319.66 313.46,319.26 311.52,315.67 C309.79,312.45 309.92,309.00 311.78,309.00 C312.25,309.00 313.93,310.37 315.53,312.04 C317.87,314.47 318.23,315.41 317.36,316.79 ZM 380.80 408.38 C380.58,409.95 379.72,410.55 377.50,410.69 C371.46,411.09 369.90,408.23 375.07,406.28 C378.95,404.81 381.19,405.64 380.80,408.38 ZM 415.60 353.59 C414.95,355.31 413.00,355.47 413.00,353.80 C413.00,353.15 411.81,350.89 410.35,348.79 C407.46,344.62 407.66,343.21 410.90,344.95 C413.43,346.30 416.35,351.66 415.60,353.59 ZM 278.09 461.27 C277.06,463.97 275.96,464.63 274.67,463.33 C274.30,462.97 274.00,459.82 274.00,456.33 C274.00,455.49 274.00,454.75 274.02,454.12 C274.11,455.94 274.55,456.08 276.39,455.62 C276.66,455.55 276.92,455.51 277.18,455.48 C276.79,456.29 277.12,457.87 278.06,458.19 C278.81,458.44 278.81,459.36 278.09,461.27 ZM 333.42 325.47 C333.33,325.59 333.35,325.75 333.47,325.95 C333.83,326.53 335.67,327.00 337.56,327.00 C341.06,327.00 341.39,327.46 341.03,331.83 C341.02,331.88 341.02,331.94 341.02,331.98 C340.58,329.75 339.40,329.58 334.25,329.93 C330.93,330.16 329.74,328.42 332.49,327.36 C333.32,327.05 333.73,326.37 333.41,325.85 C333.31,325.69 333.32,325.57 333.42,325.47 ZM 332.00 433.22 C332.00,433.65 331.29,434.00 330.43,434.00 C327.37,434.00 329.52,430.68 333.75,428.89 C338.62,426.82 339.47,428.02 335.00,430.66 C333.35,431.63 332.00,432.78 332.00,433.22 ZM 357.59 339.79 C358.10,340.39 358.59,341.04 359.06,341.73 C361.28,345.01 363.43,351.20 364.15,355.40 C363.36,352.96 361.83,349.92 360.45,348.54 C358.80,346.90 358.00,344.97 358.00,342.67 C358.00,341.50 357.90,340.58 357.59,339.79 ZM 333.27 384.02 C333.48,384.52 333.61,385.05 333.64,385.56 C333.76,387.57 332.74,388.43 327.14,391.03 C324.11,392.44 320.93,394.48 319.35,395.97 C320.14,395.01 320.84,394.21 321.07,394.00 C321.39,393.73 321.95,392.68 322.32,391.68 C322.73,390.56 323.86,389.93 325.25,390.04 C329.18,390.36 329.76,390.07 331.83,386.81 C332.71,385.41 333.18,384.61 333.27,384.02 ZM 351.42 422.39 C349.08,423.29 347.00,423.13 347.00,422.06 C347.00,421.05 350.93,418.00 352.22,418.00 C353.69,418.00 353.00,421.79 351.42,422.39 ZM 307.21 297.03 C307.08,297.14 307.03,297.63 307.02,298.44 C307.01,299.92 308.46,303.35 309.77,305.60 C309.23,305.22 308.52,304.93 307.81,304.83 C305.13,304.45 304.05,299.85 306.07,297.41 C306.48,296.92 306.82,296.75 307.21,297.03 ZM 416.82 341.76 C417.06,343.44 416.64,344.00 415.13,344.00 C412.69,344.00 411.78,342.74 412.62,340.54 C413.51,338.23 416.44,339.08 416.82,341.76 ZM 322.00 446.00 C320.96,447.94 318.01,448.68 316.68,447.34 C315.53,446.20 318.15,444.00 320.66,444.00 C322.76,444.00 322.93,444.26 322.00,446.00 ZM 307.56 323.14 C305.46,323.12 305.00,322.69 305.00,321.50 C305.00,320.67 304.33,320.00 303.50,320.00 C302.67,320.00 302.00,319.55 302.00,319.00 C302.00,318.45 301.33,318.00 300.50,318.00 C299.68,318.00 299.01,317.60 299.00,317.11 C300.05,318.01 300.77,318.00 302.02,317.22 C304.15,315.89 305.47,317.04 306.49,321.10 C306.77,322.21 307.05,322.84 307.56,323.14 ZM 346.57 431.89 C346.19,432.50 344.75,433.00 343.37,433.00 C341.52,433.00 340.94,432.54 341.19,431.26 C341.37,430.31 342.19,429.41 343.01,429.26 C345.12,428.89 347.39,430.57 346.57,431.89 ZM 416.82 382.24 C416.51,384.43 414.06,385.73 412.74,384.40 C411.70,383.37 413.89,380.00 415.60,380.00 C416.62,380.00 417.03,380.75 416.82,382.24 ZM 358.00 350.44 C358.00,353.48 356.61,354.44 355.01,352.52 C354.05,351.36 354.12,350.74 355.33,349.53 C357.44,347.42 358.00,347.61 358.00,350.44 ZM 401.96 398.55 C400.63,400.15 397.00,400.04 397.00,398.39 C397.00,396.88 399.56,395.89 401.53,396.65 C402.66,397.08 402.77,397.57 401.96,398.55 ZM 341.22 333.51 C341.60,334.04 342.56,334.07 344.67,333.95 C345.67,333.90 346.65,333.93 347.60,334.05 C347.38,334.30 347.18,334.66 346.91,335.16 C345.23,338.31 341.73,337.23 341.22,333.51 ZM 319.39 254.80 C320.12,254.48 320.75,254.60 321.09,255.15 C321.58,255.94 323.77,255.28 326.28,253.85 C325.52,254.29 324.81,254.66 324.23,254.91 C322.49,255.63 320.79,257.07 320.46,258.12 C320.13,259.17 319.50,259.81 319.06,259.54 C318.75,259.35 318.05,259.67 317.30,260.30 C317.43,260.00 317.58,259.68 317.75,259.38 C318.40,258.22 318.62,256.95 318.24,256.58 C317.92,256.25 318.13,255.67 318.72,255.20 C318.93,255.07 319.16,254.93 319.39,254.80 ZM 409.55 337.91 C408.75,339.21 405.00,339.38 405.00,338.12 C405.00,337.64 405.69,336.67 406.54,335.96 C408.30,334.50 410.70,336.06 409.55,337.91 ZM 305.66 263.00 C305.87,263.10 306.00,263.39 306.00,263.88 C306.00,264.28 306.75,264.76 307.77,265.07 C305.85,265.67 304.00,266.52 304.00,267.05 C304.00,267.57 303.66,267.93 303.25,267.84 C302.75,267.74 301.14,268.33 299.36,269.14 C301.19,268.04 302.63,266.70 303.16,265.56 C303.54,264.72 303.99,264.05 304.41,263.60 C304.82,263.40 305.24,263.20 305.66,263.00 ZM 394.65 396.46 C394.32,397.34 392.87,398.00 391.28,397.99 L 388.50 397.99 L 391.46 396.04 C394.67,393.92 395.58,394.04 394.65,396.46 ZM 323.17 260.86 C324.76,259.79 326.17,258.53 326.59,257.56 C327.18,256.24 328.46,255.48 330.20,255.45 C331.37,255.43 332.73,254.93 333.92,254.21 C331.45,256.12 327.68,258.52 324.11,260.34 C323.81,260.49 323.50,260.67 323.17,260.86 ZM 368.50 306.00 C368.50,306.81 367.71,307.62 366.75,307.81 C365.52,308.05 365.00,307.51 365.00,306.00 C365.00,304.49 365.52,303.95 366.75,304.19 C367.71,304.38 368.50,305.19 368.50,306.00 ZM 359.00 242.04 C355.98,243.59 351.92,245.62 350.00,246.54 C351.92,245.62 355.98,243.53 359.00,241.90 C364.32,239.04 364.38,238.97 360.85,239.50 C358.20,239.90 356.73,239.59 355.51,238.37 C354.77,237.63 354.40,237.19 354.51,236.81 C354.77,237.41 356.57,238.01 359.74,238.50 L 364.50 239.23 ZM 308.57 401.40 C308.84,401.04 309.00,400.55 309.00,400.00 C309.00,397.68 309.35,397.58 311.89,399.17 C312.51,399.55 312.91,399.83 313.06,400.10 C312.96,400.03 312.80,400.00 312.56,400.00 C311.56,400.00 310.13,400.52 308.57,401.40 ZM 274.00 430.44 C274.00,431.23 273.55,432.16 273.00,432.50 C272.45,432.84 272.00,432.19 272.00,431.06 C272.00,429.93 272.45,429.00 273.00,429.00 C273.55,429.00 274.00,429.65 274.00,430.44 ZM 379.09 321.83 C378.35,321.82 377.44,321.86 376.31,321.95 C375.11,322.05 372.96,321.36 371.53,320.43 C370.11,319.49 368.69,318.97 368.39,319.27 C368.69,318.97 370.04,319.45 371.39,320.34 C372.74,321.22 375.50,321.88 377.51,321.81 C378.05,321.79 378.59,321.80 379.09,321.83 ZM 357.16 294.52 C356.54,296.66 356.08,299.32 356.16,301.07 L 356.17 301.20 C356.06,300.69 356.00,300.24 356.00,299.88 C356.00,298.50 356.50,296.37 357.16,294.52 ZM 282.00 387.79 L 282.00 391.80 L 282.00 391.81 C282.00,391.95 282.00,392.10 282.00,392.25 C281.99,393.42 281.99,394.53 281.98,395.57 C281.97,397.51 281.96,399.23 281.96,400.74 C281.94,398.39 281.94,395.80 281.95,393.08 C282.03,380.83 281.73,375.02 281.01,375.00 C281.63,375.00 281.96,379.14 282.00,387.79 ZM 291.65 312.33 C289.52,310.57 287.78,308.47 287.50,307.00 C287.50,306.99 287.49,306.97 287.49,306.96 C287.72,308.16 289.66,310.49 291.65,312.33 ZM 357.75 357.53 C358.05,356.29 358.65,355.79 359.58,356.00 C358.86,356.03 358.20,356.68 357.75,357.53 ZM 326.48 386.14 C327.84,385.14 328.88,384.14 329.26,383.32 C329.82,382.10 330.28,381.62 330.97,381.75 C330.38,381.67 329.97,382.15 329.35,383.32 C328.91,384.15 327.84,385.15 326.48,386.14 ZM 350.61 245.05 C352.70,243.87 353.03,243.07 352.82,241.20 C352.81,241.16 352.81,241.12 352.81,241.09 C352.81,241.14 352.82,241.19 352.82,241.24 C353.07,243.34 352.63,244.14 350.61,245.05 ZM 333.92 379.66 C332.59,381.12 332.06,382.00 332.75,381.60 C332.06,382.00 332.52,381.20 333.76,379.84 C334.81,378.68 335.50,377.49 335.47,376.94 C335.89,377.04 335.22,378.24 333.92,379.66 ZM 362.31 231.93 C363.52,230.86 365.22,230.00 366.17,230.00 C367.44,230.00 368.79,228.80 369.68,227.29 C368.80,228.80 367.47,230.00 366.23,230.00 C365.42,230.00 363.78,230.82 362.31,231.93 ZM 359.75 287.03 C359.78,286.55 359.81,286.02 359.85,285.41 C359.89,284.77 360.02,284.22 360.24,283.77 C360.08,284.09 360.00,284.45 360.00,284.82 C360.00,285.45 359.90,286.26 359.75,287.03 ZM 356.39 235.62 C356.55,235.55 356.72,235.48 356.90,235.40 C358.01,234.94 359.41,234.13 360.59,233.30 C359.14,234.38 357.43,235.33 356.39,235.62 ZM 309.49 301.45 C309.02,300.30 308.64,299.40 308.33,298.71 C308.68,299.44 309.10,300.42 309.61,301.67 C310.01,302.66 310.38,303.61 310.68,304.45 C310.34,303.56 309.94,302.53 309.49,301.45 ZM 313.10 400.50 C312.97,400.92 312.34,401.46 311.13,402.42 C309.15,403.98 306.83,405.46 304.82,406.50 C306.87,405.43 309.25,403.91 311.33,402.25 C312.33,401.45 312.92,400.87 313.10,400.50 ZM 305.55 293.98 C306.73,294.96 306.77,294.47 306.70,291.29 C306.78,294.64 306.77,295.13 305.55,293.98 ZM 296.15 270.74 C294.46,271.66 293.19,272.53 293.35,272.81 C293.17,272.50 294.37,271.64 296.15,270.74 ZM 317.90 397.77 L 316.91 399.17 L 316.53 399.50 ZM 320.25 328.98 C322.90,330.57 325.15,332.17 325.81,332.90 C325.15,332.17 322.90,330.57 320.25,328.99 C319.14,328.32 318.05,327.63 317.09,326.97 C318.07,327.63 319.15,328.32 320.25,328.98 ZM 299.45 453.72 C299.77,453.12 300.08,452.30 300.28,451.33 C300.08,452.33 299.84,453.09 299.45,453.72 ZM 311.59 307.74 C311.48,307.85 311.30,307.73 311.11,307.45 C311.31,307.64 311.49,307.73 311.61,307.69 C311.61,307.71 311.60,307.73 311.59,307.74 ZM 296.89 315.42 C296.68,315.32 296.47,315.23 296.25,315.15 C296.12,315.10 295.99,315.05 295.86,314.99 C296.14,315.05 296.50,315.20 296.89,315.42 ZM 308.03 284.00 C307.24,286.08 306.66,288.89 306.70,291.23 C306.65,288.91 307.23,286.09 308.03,284.00 ZM 360.41 283.45 C360.78,282.86 361.31,282.47 362.00,282.29 C361.33,282.47 360.77,282.89 360.41,283.45 ZM 331.56 381.97 C331.66,382.03 331.77,382.09 331.88,382.16 C331.98,382.22 332.07,382.29 332.17,382.37 C331.94,382.21 331.74,382.08 331.56,381.97 ZM 280.77 373.36 C280.21,374.29 280.17,375.00 281.00,375.00 C280.17,375.00 280.21,374.29 280.77,373.36 ZM 275.13 450.11 C275.37,450.03 275.65,450.00 276.00,450.00 C275.66,450.00 275.37,450.03 275.13,450.11 Z" fill="rgb(253,253,251)"/>
<path d="M 0.00 0.00 L 649.00 0.00 L 649.00 649.00 L 0.00 649.00 ZM 280.96 465.46 C282.93,467.83 284.65,467.32 287.57,463.50 C290.42,459.76 292.76,458.70 291.04,461.93 C289.59,464.64 289.69,464.93 292.39,465.96 C295.73,467.23 298.99,466.15 300.02,463.44 C300.51,462.16 301.91,461.01 303.20,460.83 C306.45,460.37 306.91,456.19 303.95,453.96 L 301.72 452.28 L 303.86 450.14 C306.11,447.89 309.46,447.31 310.50,449.00 C310.84,449.55 313.98,450.00 317.49,450.00 C324.25,450.00 327.00,448.55 327.00,445.00 C327.00,442.78 324.22,439.75 322.92,440.55 C320.86,441.82 322.24,439.37 324.51,437.72 C326.80,436.05 327.13,436.04 329.48,437.58 C332.54,439.58 336.61,438.80 337.49,436.03 C337.99,434.47 338.71,434.19 341.07,434.66 C344.30,435.31 353.57,431.58 354.45,429.27 C355.09,427.59 354.06,425.00 352.74,425.00 C352.16,425.00 352.44,424.17 353.36,423.15 C354.28,422.14 354.91,420.23 354.77,418.90 C354.52,416.67 354.82,416.51 359.00,416.59 C361.48,416.64 365.66,417.04 368.31,417.48 C372.72,418.22 373.16,418.11 373.67,416.14 C374.14,414.38 374.98,414.00 378.49,414.00 C384.02,414.00 385.90,412.02 383.63,408.56 C382.00,406.08 382.35,403.00 384.25,403.00 C384.82,403.00 387.23,402.03 389.60,400.84 L 393.92 398.68 L 397.75 403.41 L 401.88 401.56 C404.14,400.53 406.00,399.17 406.00,398.53 C406.00,397.89 407.59,396.61 409.52,395.69 C412.05,394.49 413.22,393.17 413.64,391.04 C413.97,389.41 415.31,387.37 416.62,386.52 C419.30,384.76 419.67,381.47 417.50,378.60 C416.71,377.56 416.39,376.21 416.78,375.60 C417.18,375.00 417.54,373.15 417.58,371.50 C417.63,369.85 417.99,367.76 418.40,366.85 C418.89,365.76 418.39,364.51 416.92,363.14 C414.71,361.08 414.70,361.07 416.49,355.38 C417.76,351.36 417.99,349.21 417.28,348.08 C416.56,346.92 416.68,346.09 417.69,345.14 C419.70,343.26 418.92,338.75 416.36,337.48 C415.18,336.90 413.44,335.78 412.51,335.00 C411.57,334.22 408.71,333.57 406.15,333.54 L 401.50 333.50 L 401.79 328.81 C402.03,325.03 401.72,323.92 400.18,323.09 C399.12,322.53 397.96,322.37 397.59,322.74 C397.22,323.11 396.65,322.39 396.32,321.13 C395.46,317.82 391.51,316.60 387.73,318.48 C384.14,320.28 381.00,320.46 381.00,318.87 C381.00,318.12 379.59,317.93 376.81,318.30 C369.30,319.31 365.37,315.12 369.10,310.08 C371.63,306.66 371.11,302.49 368.02,301.51 C366.24,300.94 366.10,300.26 366.64,294.69 C366.97,291.29 367.90,287.43 368.72,286.13 C369.60,284.73 369.97,282.62 369.64,280.95 C369.26,279.05 369.87,276.66 371.54,273.52 C373.38,270.06 374.00,267.34 374.02,262.70 C374.02,259.29 374.47,255.82 375.00,255.00 C375.08,254.88 375.15,254.76 375.22,254.65 C375.46,254.26 375.63,253.99 375.76,254.00 C376.09,254.06 376.11,256.22 376.31,263.97 C376.49,271.11 376.62,271.49 379.19,272.40 C381.13,273.08 382.32,272.98 383.47,272.03 C384.81,270.92 385.01,268.41 384.78,255.71 C384.54,242.63 384.27,240.57 382.73,239.61 C381.38,238.76 380.31,238.87 378.23,240.04 C375.40,241.64 373.32,241.17 369.62,238.10 C368.58,237.24 366.82,237.00 364.59,237.42 C362.70,237.77 360.89,237.63 360.57,237.11 C359.95,236.11 364.57,232.35 367.07,231.81 C368.73,231.45 372.00,228.12 372.00,226.79 C372.00,226.29 372.45,226.16 373.00,226.50 C373.55,226.84 374.45,225.94 375.00,224.50 C376.32,221.03 376.32,202.00 375.00,202.00 C374.45,202.00 374.00,200.88 374.00,199.50 C374.00,198.12 374.45,197.00 375.00,197.00 C375.55,197.00 376.00,196.13 376.00,195.08 C376.00,193.75 374.84,192.77 372.25,191.89 C367.38,190.25 363.41,190.68 359.58,193.28 C357.89,194.43 355.33,196.15 353.90,197.10 C352.48,198.05 349.85,199.06 348.06,199.34 C346.27,199.62 344.56,200.11 344.25,200.42 C343.94,200.73 343.08,200.48 342.34,199.87 C341.48,199.15 341.00,199.12 341.00,199.78 C341.00,200.35 340.16,200.59 339.13,200.32 C337.73,199.96 337.06,200.55 336.46,202.67 C336.02,204.23 335.63,205.95 335.58,206.50 C335.54,207.05 332.16,207.59 328.09,207.70 C320.49,207.91 318.06,209.16 320.21,211.76 C321.76,213.62 320.21,214.82 315.64,215.32 C311.64,215.76 309.81,217.35 310.69,219.63 C311.37,221.42 308.86,223.75 305.37,224.58 C303.79,224.96 301.71,225.95 300.75,226.79 C299.30,228.05 298.99,228.07 298.97,226.90 C298.95,225.84 298.71,225.89 297.99,227.12 C296.30,230.01 292.15,232.15 290.23,231.12 C288.00,229.93 282.80,233.64 284.89,234.93 C285.89,235.55 285.84,235.85 284.65,236.30 C283.81,236.63 282.91,236.35 282.64,235.69 C282.38,235.04 282.12,235.59 282.08,236.92 C282.04,238.25 281.76,239.09 281.46,238.79 C281.16,238.49 277.90,240.24 274.21,242.67 C270.44,245.15 266.73,246.89 265.75,246.64 C264.79,246.39 264.00,246.62 264.00,247.15 C264.00,247.68 263.55,247.84 263.00,247.50 C262.45,247.16 262.00,247.37 262.00,247.98 C262.00,248.77 261.42,248.76 259.94,247.97 C257.37,246.59 254.68,248.43 255.50,251.00 C256.20,253.21 254.08,254.95 250.40,255.18 C248.80,255.28 246.96,255.77 246.29,256.27 C245.63,256.77 244.67,256.91 244.15,256.59 C243.18,255.99 241.73,258.38 241.48,261.00 C241.09,265.02 237.58,270.93 234.92,272.03 L 232.09 273.20 L 232.14 282.85 C232.19,292.24 232.27,292.59 235.29,295.74 C238.67,299.29 239.18,300.70 239.03,306.10 C238.98,308.08 239.51,310.16 240.22,310.71 C241.58,311.79 246.99,313.44 248.25,313.16 C248.66,313.07 249.00,313.48 249.00,314.06 C249.00,314.64 249.34,314.91 249.76,314.65 C250.18,314.39 251.64,314.84 253.01,315.66 C254.71,316.66 254.86,316.94 253.51,316.51 C251.53,315.88 251.53,315.88 253.51,317.80 C254.61,318.85 256.02,319.52 256.65,319.29 C257.28,319.05 258.07,319.30 258.40,319.84 C258.73,320.37 259.86,320.59 260.91,320.31 C262.02,320.02 263.65,320.65 264.82,321.82 C265.93,322.93 267.19,323.53 267.63,323.17 C268.07,322.80 267.83,323.29 267.09,324.25 C266.13,325.51 266.09,326.00 266.94,326.00 C267.59,326.00 267.79,326.53 267.39,327.17 C266.91,327.96 267.22,328.13 268.34,327.70 C269.25,327.35 270.00,327.52 270.00,328.07 C270.00,328.63 271.71,328.98 273.80,328.86 C278.65,328.57 280.31,329.62 279.73,332.61 C279.14,335.73 281.49,337.80 283.92,336.28 C284.89,335.68 286.17,335.49 286.78,335.86 C288.58,336.98 292.00,345.92 292.00,349.54 C292.00,353.55 290.09,358.17 288.77,357.36 C288.23,357.03 287.97,358.11 288.15,359.87 C288.50,363.18 285.78,367.43 283.75,366.75 C282.07,366.19 279.09,369.06 279.69,370.65 C279.98,371.39 279.76,372.00 279.20,372.00 C277.74,372.00 277.80,385.92 279.27,389.24 C279.94,390.76 280.83,392.00 281.24,392.00 C281.57,392.00 281.85,389.65 281.95,386.39 C281.97,388.35 281.97,390.58 281.95,393.08 C281.94,395.80 281.94,398.39 281.96,400.74 L 281.96 400.74 C281.94,405.35 281.94,408.08 281.98,409.70 C281.87,408.26 281.84,406.20 281.90,404.01 C282.01,400.16 281.73,397.00 281.27,397.00 C279.93,397.00 278.03,402.90 279.15,403.59 C279.69,403.93 279.81,405.57 279.42,407.35 C279.03,409.08 278.61,411.40 278.49,412.50 C278.36,413.60 278.20,414.80 278.13,415.16 C278.06,415.52 277.21,415.63 276.25,415.40 C275.29,415.17 273.44,415.81 272.14,416.83 C269.38,418.99 268.84,424.07 269.86,438.50 C270.44,446.72 270.68,447.50 272.54,447.44 C274.54,447.39 274.55,447.47 272.87,450.76 C271.25,453.93 271.19,456.83 272.58,463.75 C273.07,466.17 276.71,466.89 278.64,464.96 C279.37,464.23 280.08,464.39 280.96,465.46 ZM 307.99 309.52 C307.22,311.54 306.49,311.83 302.46,311.68 C298.13,311.51 293.44,310.07 297.00,310.00 C298.24,309.97 298.26,309.82 297.12,309.10 C296.36,308.62 296.02,307.77 296.36,307.23 C297.31,305.70 294.27,303.70 291.93,304.31 C289.74,304.88 286.01,302.02 285.99,299.75 C285.99,299.06 285.31,297.19 284.48,295.60 C283.12,293.01 283.12,292.52 284.48,291.02 C285.32,290.10 286.00,288.24 286.00,286.89 C286.00,282.81 288.55,280.10 291.91,280.63 C295.04,281.13 296.36,279.92 296.56,276.39 C296.75,272.98 297.83,271.00 299.49,271.00 C301.91,271.00 302.71,274.74 302.31,284.24 C302.02,291.19 302.29,293.51 303.62,295.54 C304.76,297.28 305.62,297.78 306.32,297.08 C306.43,296.98 306.54,296.92 306.67,296.92 C306.48,296.99 306.28,297.16 306.07,297.41 C304.14,299.74 305.04,304.04 307.46,304.75 C306.25,304.44 305.28,303.41 304.89,302.00 L 304.20 299.50 L 304.10 302.05 C304.04,303.45 304.54,305.14 305.20,305.80 C306.63,307.23 308.66,307.36 309.46,306.07 C309.68,305.72 309.38,305.34 308.77,305.08 C309.14,305.22 309.48,305.39 309.77,305.60 C309.94,305.88 310.10,306.15 310.26,306.38 C309.59,306.68 308.61,307.91 307.99,309.52 ZM 349.69 364.07 C349.18,366.03 348.87,366.13 345.72,365.31 C344.19,364.91 343.97,363.72 344.09,356.57 C344.22,349.00 343.07,344.00 341.20,344.00 C340.81,344.00 339.20,342.81 337.63,341.35 C335.22,339.12 335.01,338.57 336.32,337.84 C337.25,337.32 338.90,337.45 340.48,338.17 C342.50,339.09 343.85,339.10 346.37,338.18 C350.70,336.62 352.00,336.69 352.00,338.50 C352.00,339.33 351.60,340.00 351.12,340.00 C349.47,340.00 349.21,343.86 350.73,346.02 C351.77,347.51 352.04,349.36 351.60,352.08 C351.05,355.51 351.22,356.00 352.92,356.00 C354.93,356.00 355.44,357.02 356.43,363.00 C356.88,365.70 356.80,366.01 356.08,364.35 C355.56,363.17 354.70,361.93 354.16,361.60 C352.62,360.64 350.25,361.95 349.69,364.07 ZM 317.17 396.35 C315.15,398.17 314.65,398.32 313.66,397.33 C312.78,396.44 315.95,393.00 317.65,393.00 C319.53,393.00 319.33,394.39 317.17,396.35 ZM 325.39 324.74 C324.82,325.64 323.83,326.56 323.18,326.77 C321.40,327.37 321.76,323.03 323.54,322.35 C325.68,321.53 326.64,322.77 325.39,324.74 ZM 331.33 332.88 C333.84,335.39 333.51,335.47 329.50,333.30 C327.59,332.26 326.99,331.51 327.85,331.22 C328.60,330.97 330.16,331.72 331.33,332.88 ZM 311.01 307.36 C311.04,307.39 311.08,307.43 311.11,307.45 C311.26,307.67 311.40,307.79 311.51,307.78 C311.50,307.82 311.49,307.85 311.47,307.86 C311.25,308.09 311.06,307.86 311.01,307.36 ZM 276.43 463.83 C277.00,463.52 277.54,462.69 278.06,461.35 C277.49,462.83 276.94,463.64 276.43,463.83 ZM 276.08 450.00 C276.05,450.00 276.03,450.00 276.00,450.00 C275.63,450.00 275.36,450.04 275.13,450.11 C274.82,450.20 274.59,450.37 274.42,450.63 C274.69,450.09 275.17,450.00 275.95,450.00 C276.00,450.00 276.04,450.00 276.08,450.00 ZM 281.21 375.18 C281.13,375.06 281.05,375.00 280.96,375.00 C280.29,375.00 280.21,374.51 280.53,373.80 C280.22,374.51 280.31,375.00 281.00,375.00 L 281.01 375.00 C281.08,375.00 281.15,375.06 281.21,375.18 Z" fill="rgb(254,254,254)"/>
<path d="M 374.94 255.11 C375.10,252.86 375.23,250.49 375.30,248.03 C375.47,242.63 375.27,241.56 373.65,240.65 C375.23,241.20 376.61,240.96 378.23,240.04 C380.31,238.87 381.38,238.76 382.73,239.61 C384.27,240.57 384.54,242.63 384.78,255.71 C385.01,268.41 384.81,270.92 383.47,272.03 C382.32,272.98 381.13,273.08 379.19,272.40 C376.62,271.49 376.49,271.11 376.31,263.97 C376.11,256.22 376.09,254.06 375.76,254.00 C375.63,253.99 375.46,254.26 375.22,254.65 C375.15,254.76 375.08,254.88 375.00,255.00 C374.98,255.03 374.96,255.07 374.94,255.11 ZM 332.00 433.22 C332.00,432.78 333.35,431.63 335.00,430.66 C335.47,430.38 335.89,430.11 336.25,429.87 C335.65,430.46 335.40,431.06 335.68,431.35 C336.93,432.60 340.79,431.99 341.38,430.45 C341.62,429.84 341.99,429.49 342.68,429.36 C341.98,429.65 341.35,430.44 341.19,431.26 C340.94,432.54 341.52,433.00 343.37,433.00 C344.75,433.00 346.19,432.50 346.57,431.89 C347.11,431.01 346.29,429.97 345.05,429.49 C345.19,429.51 345.34,429.54 345.49,429.56 C348.24,430.08 349.00,429.90 349.00,428.72 C349.00,427.89 349.67,426.95 350.50,426.64 C351.33,426.32 352.00,425.21 352.00,424.17 C352.00,423.08 351.72,422.63 350.77,422.62 C350.98,422.55 351.20,422.48 351.42,422.39 C353.00,421.79 353.69,418.00 352.22,418.00 C352.10,418.00 351.96,418.03 351.80,418.07 C354.97,416.25 356.54,416.00 361.53,416.46 C366.53,416.92 367.76,416.71 368.81,415.25 C369.81,413.87 371.21,413.57 375.53,413.84 C381.48,414.22 381.72,414.01 382.39,408.00 C382.47,407.27 382.55,406.53 382.63,405.89 C382.73,406.74 383.06,407.69 383.63,408.56 C385.90,412.02 384.02,414.00 378.49,414.00 C374.98,414.00 374.14,414.38 373.67,416.14 C373.16,418.11 372.72,418.22 368.31,417.48 C365.66,417.04 361.48,416.64 359.00,416.59 C354.82,416.51 354.52,416.67 354.77,418.90 C354.91,420.23 354.28,422.14 353.36,423.15 C352.44,424.17 352.16,425.00 352.74,425.00 C354.06,425.00 355.09,427.59 354.45,429.27 C353.57,431.58 344.30,435.31 341.07,434.66 C338.71,434.19 337.99,434.47 337.49,436.03 C336.61,438.80 332.54,439.58 329.48,437.58 C327.82,436.49 327.17,436.18 326.11,436.68 C327.76,435.40 329.00,433.78 329.00,432.83 C329.00,431.53 330.37,430.33 333.25,429.09 C337.26,427.36 339.19,427.31 337.55,428.80 C338.66,427.60 337.24,427.41 333.75,428.89 C329.52,430.68 327.37,434.00 330.43,434.00 C331.29,434.00 332.00,433.65 332.00,433.22 ZM 273.00 447.00 C273.00,447.15 273.02,447.30 273.04,447.43 C272.89,447.43 272.73,447.44 272.54,447.44 C270.68,447.50 270.44,446.72 269.86,438.50 C268.84,424.07 269.38,418.99 272.14,416.83 C272.57,416.50 273.05,416.21 273.54,415.97 C272.99,416.98 273.47,418.78 275.13,420.43 C276.49,421.79 277.51,422.58 278.08,422.79 C277.88,423.04 277.61,423.29 277.29,423.53 C275.83,424.60 275.77,425.28 276.81,428.74 C277.09,429.68 277.34,431.25 277.55,433.12 C276.93,428.11 275.74,425.00 274.23,425.00 C273.19,425.00 273.06,427.03 273.53,429.22 C273.37,429.08 273.19,429.00 273.00,429.00 C272.45,429.00 272.00,429.93 272.00,431.06 C272.00,432.19 272.45,432.84 273.00,432.50 C273.47,432.21 273.86,431.50 273.97,430.81 C274.38,432.00 274.95,433.10 275.64,433.78 C278.05,436.19 277.20,445.71 274.31,448.60 C273.97,448.94 273.66,449.33 273.38,449.74 C274.00,448.49 274.22,447.90 274.00,447.64 C274.17,447.46 274.35,447.24 274.50,447.00 C274.84,446.45 274.64,446.00 274.06,446.00 C273.48,446.00 273.00,446.45 273.00,447.00 ZM 388.25 326.36 C390.43,327.27 391.91,327.40 392.75,326.74 C394.50,325.36 394.31,323.33 392.36,322.58 C390.35,321.81 387.00,322.77 387.00,324.13 C387.00,324.67 386.55,324.84 386.00,324.50 C385.45,324.16 385.00,324.13 385.00,324.44 C385.00,324.54 385.16,324.70 385.44,324.90 C384.79,324.54 384.20,324.19 383.69,323.89 C383.87,323.77 383.99,323.56 383.98,323.25 C383.94,320.94 381.83,319.60 378.57,319.82 C375.90,320.00 373.16,319.19 371.06,317.90 C372.56,318.43 374.52,318.61 376.81,318.30 C379.59,317.93 381.00,318.12 381.00,318.87 C381.00,320.46 384.14,320.28 387.73,318.48 C391.51,316.60 395.46,317.82 396.32,321.13 C396.65,322.39 397.22,323.11 397.59,322.74 C397.96,322.37 399.12,322.53 400.18,323.09 C401.72,323.92 402.03,325.03 401.79,328.81 L 401.56 332.51 C401.32,332.17 401.12,331.83 400.99,331.47 C400.04,328.98 397.63,328.17 396.51,329.98 C396.20,330.49 396.39,331.76 396.93,332.86 C395.98,330.94 393.71,329.20 389.19,326.90 C388.63,326.62 388.08,326.33 387.55,326.05 C387.77,326.15 388.01,326.26 388.25,326.36 ZM 291.63 460.33 C291.79,460.41 291.96,460.52 292.14,460.66 C292.89,461.26 294.47,461.67 295.67,461.57 C298.01,461.37 301.37,459.04 300.53,458.20 C300.25,457.92 300.48,457.13 301.05,456.44 C301.61,455.77 302.27,454.17 302.52,452.88 L 303.95 453.96 C306.91,456.19 306.45,460.37 303.20,460.83 C301.91,461.01 300.51,462.16 300.02,463.44 C298.99,466.15 295.73,467.23 292.39,465.96 C289.69,464.93 289.59,464.64 291.04,461.93 C291.45,461.16 291.63,460.64 291.63,460.33 ZM 349.69 364.07 C350.25,361.95 352.62,360.64 354.16,361.60 C354.70,361.93 355.56,363.17 356.08,364.35 C356.19,364.62 356.29,364.83 356.37,365.00 C356.36,367.14 355.60,367.53 351.00,369.05 C349.39,369.58 347.60,370.07 346.06,370.42 C346.73,369.84 346.05,368.87 343.98,367.65 C341.51,366.19 341.21,365.58 341.98,363.56 C342.13,363.15 342.25,362.64 342.34,362.05 C342.28,363.12 342.14,363.99 341.93,364.50 C341.69,365.05 341.95,365.73 342.50,366.00 C343.21,366.35 343.84,361.90 344.08,357.23 C343.98,363.80 344.24,364.92 345.72,365.31 C348.87,366.13 349.18,366.03 349.69,364.07 ZM 322.00 446.00 C322.93,444.26 322.76,444.00 320.66,444.00 C319.80,444.00 318.93,444.26 318.20,444.64 C318.46,444.41 318.74,444.18 319.05,443.97 C320.53,442.91 321.76,441.59 321.98,440.87 C322.10,440.96 322.40,440.87 322.92,440.55 C324.22,439.75 327.00,442.78 327.00,445.00 C327.00,448.55 324.25,450.00 317.49,450.00 C313.98,450.00 310.84,449.55 310.50,449.00 C310.31,448.69 310.04,448.46 309.72,448.30 C310.32,448.29 310.96,448.30 311.66,448.33 C315.64,448.51 316.92,448.25 316.57,447.32 C316.55,447.28 316.54,447.22 316.54,447.17 C316.57,447.23 316.62,447.29 316.68,447.34 C318.01,448.68 320.96,447.94 322.00,446.00 ZM 325.39 324.74 C326.20,323.46 326.08,322.49 325.31,322.19 C327.07,322.41 329.00,323.34 329.00,324.32 C329.00,325.02 329.50,326.10 330.12,326.72 C330.82,327.42 331.98,327.52 332.76,327.24 C332.67,327.29 332.59,327.33 332.49,327.36 C329.74,328.42 330.93,330.16 334.25,329.93 C336.17,329.80 337.54,329.74 338.52,329.84 C337.55,330.01 336.38,330.79 335.17,332.22 C334.03,333.57 333.42,334.24 332.72,334.38 C332.47,334.06 332.00,333.56 331.33,332.88 C330.16,331.72 328.60,330.97 327.85,331.22 C327.69,331.27 327.58,331.34 327.52,331.43 C327.45,331.25 327.45,331.08 327.53,330.96 C327.85,330.43 327.67,330.00 327.13,330.00 C326.58,330.00 325.86,329.12 325.52,328.05 C325.14,326.87 324.33,326.32 323.45,326.66 C323.44,326.66 323.43,326.66 323.43,326.67 C324.06,326.34 324.89,325.53 325.39,324.74 ZM 351.97 338.06 C351.99,338.13 352.00,338.19 352.00,338.26 C352.00,338.95 353.12,340.73 354.49,342.21 C355.95,343.78 356.73,345.53 356.38,346.45 C356.05,347.30 356.28,348.00 356.89,348.00 C357.01,348.00 357.13,348.04 357.23,348.11 C356.82,348.17 356.21,348.65 355.33,349.53 C354.13,350.73 354.05,351.34 354.98,352.48 C354.03,351.34 353.41,351.25 352.37,352.11 C351.97,352.44 351.66,352.80 351.44,353.15 C351.49,352.83 351.54,352.48 351.60,352.08 C352.04,349.36 351.77,347.51 350.73,346.02 C349.21,343.86 349.47,340.00 351.12,340.00 C351.60,340.00 352.00,339.33 352.00,338.50 C352.00,338.34 351.99,338.19 351.97,338.06 ZM 280.96 465.46 C280.08,464.39 279.37,464.23 278.64,464.96 C276.71,466.89 273.07,466.17 272.58,463.75 C272.51,463.38 272.44,463.01 272.37,462.66 C272.54,462.87 272.76,463.00 273.00,463.00 C273.55,463.00 274.00,462.33 274.00,461.50 C274.00,460.67 273.55,460.00 273.00,460.00 C272.58,460.00 272.21,460.40 272.07,460.97 C271.35,456.68 271.44,454.22 272.35,451.90 C271.78,453.69 271.85,455.51 272.75,456.43 C273.16,456.85 273.64,455.57 273.81,453.59 C273.87,452.88 273.95,452.30 274.06,451.82 C274.02,452.18 274.00,452.61 274.00,453.11 C274.00,453.49 274.00,453.82 274.02,454.12 C274.00,454.75 274.00,455.49 274.00,456.33 C274.00,459.82 274.30,462.97 274.67,463.33 C275.29,463.96 275.88,464.13 276.43,463.83 C276.94,463.64 277.49,462.83 278.06,461.35 C276.94,464.31 277.44,464.71 279.57,462.57 C280.57,461.57 280.94,460.08 280.82,458.68 C280.97,459.25 281.09,459.85 281.16,460.49 C281.60,464.35 284.12,464.89 287.16,461.94 C287.05,462.22 287.00,462.50 287.00,462.77 C287.00,463.60 287.48,463.49 288.42,462.44 C288.15,462.76 287.86,463.12 287.57,463.50 C284.65,467.32 282.93,467.83 280.96,465.46 ZM 368.50 306.00 C368.50,305.19 367.71,304.38 366.75,304.19 C366.22,304.09 365.82,304.13 365.54,304.33 C365.80,303.86 366.17,303.36 366.65,302.83 C367.23,302.19 367.54,301.66 367.55,301.34 C367.69,301.40 367.85,301.45 368.02,301.51 C371.11,302.49 371.63,306.66 369.10,310.08 C367.92,311.68 367.51,313.19 367.73,314.47 C367.31,313.55 367.22,312.60 367.56,311.70 C367.87,310.91 367.41,309.56 366.56,308.70 C366.24,308.39 365.98,308.08 365.77,307.79 C366.02,307.88 366.35,307.89 366.75,307.81 C367.71,307.62 368.50,306.81 368.50,306.00 ZM 416.82 341.76 C416.44,339.08 413.51,338.23 412.62,340.54 C412.58,340.65 412.54,340.76 412.51,340.86 C412.55,340.43 412.63,339.92 412.72,339.32 L 413.32 335.63 C414.26,336.30 415.47,337.04 416.36,337.48 C418.92,338.75 419.70,343.26 417.69,345.14 C417.25,345.56 416.98,345.95 416.87,346.36 C416.83,346.09 416.82,345.87 416.85,345.73 C416.94,345.30 415.91,344.54 414.56,344.02 C414.50,344.00 414.44,343.98 414.39,343.96 C414.62,343.99 414.86,344.00 415.13,344.00 C416.64,344.00 417.06,343.44 416.82,341.76 ZM 401.96 398.55 C402.35,398.08 402.53,397.72 402.48,397.43 C402.58,397.64 402.58,397.87 402.44,398.10 C401.68,399.33 402.59,400.58 403.90,400.49 C403.30,400.86 402.61,401.22 401.88,401.56 L 397.75 403.41 L 394.48 399.37 C394.55,399.39 394.60,399.40 394.65,399.42 C395.44,399.72 396.32,399.33 396.62,398.56 C396.75,398.20 397.01,397.83 397.33,397.49 C397.12,397.76 397.00,398.06 397.00,398.39 C397.00,400.04 400.63,400.15 401.96,398.55 ZM 416.82 382.24 C417.03,380.75 416.62,380.00 415.60,380.00 C415.31,380.00 414.99,380.10 414.69,380.28 C415.60,379.25 416.34,378.16 416.45,377.65 C416.50,377.44 416.58,377.16 416.68,376.84 C416.79,377.41 417.08,378.05 417.50,378.60 C419.67,381.47 419.30,384.76 416.62,386.52 C415.84,387.03 415.05,387.95 414.47,388.96 C415.13,386.84 415.30,385.00 414.42,385.00 C413.77,385.00 413.29,384.86 412.97,384.60 C414.33,385.58 416.52,384.31 416.82,382.24 ZM 341.22 333.51 C341.73,337.23 345.23,338.31 346.91,335.16 C346.06,336.78 346.32,337.00 348.96,337.00 C349.42,337.00 349.84,337.03 350.22,337.10 C349.34,337.19 348.10,337.56 346.37,338.18 C343.85,339.10 342.50,339.09 340.48,338.17 C339.17,337.58 337.81,337.38 336.86,337.63 C337.19,337.46 337.59,337.29 338.06,337.13 C340.43,336.30 341.00,335.52 341.00,333.13 C341.00,331.89 340.74,330.99 340.28,330.44 C340.67,330.79 340.88,331.28 341.02,331.98 C340.96,332.72 340.99,333.20 341.22,333.51 ZM 409.55 337.91 C410.70,336.06 408.30,334.50 406.54,335.96 C405.69,336.67 405.00,337.64 405.00,338.12 C405.00,338.60 405.54,338.87 406.25,338.95 C404.81,338.96 404.39,338.01 406.07,336.33 C406.84,335.56 406.40,335.07 404.54,334.60 C403.83,334.42 403.12,334.03 402.51,333.51 L 406.15 333.54 C408.71,333.57 411.57,334.22 412.51,335.00 C412.72,335.19 412.98,335.38 413.27,335.59 L 410.70 337.28 C410.30,337.54 409.90,337.77 409.51,337.97 C409.53,337.95 409.54,337.93 409.55,337.91 ZM 417.53 372.38 C417.44,371.96 417.30,371.56 417.11,371.21 C416.54,370.14 416.31,369.02 416.60,368.73 C416.89,368.44 416.64,366.37 416.04,364.13 C415.79,363.22 415.62,362.42 415.53,361.66 C415.81,362.11 416.27,362.53 416.92,363.14 C418.39,364.51 418.89,365.76 418.40,366.85 C417.99,367.76 417.63,369.85 417.58,371.50 C417.57,371.79 417.56,372.09 417.53,372.38 ZM 407.09 394.45 C408.12,393.92 408.96,393.31 409.61,392.60 C409.95,392.52 410.42,391.89 410.89,390.80 C410.51,392.00 409.88,392.95 409.05,393.47 C407.39,394.49 408.61,395.77 410.29,395.30 C410.05,395.43 409.79,395.56 409.52,395.69 C407.59,396.61 406.00,397.89 406.00,398.53 C406.00,398.59 405.99,398.65 405.96,398.71 C405.89,397.80 404.82,396.79 402.92,396.12 C402.82,396.09 402.72,396.05 402.63,396.02 C403.72,395.91 405.23,395.41 407.09,394.45 ZM 302.39 278.60 C302.29,274.46 301.73,272.19 300.63,271.36 C301.58,271.40 302.73,271.17 303.48,270.75 C304.83,269.99 305.11,270.08 304.69,271.13 C303.25,274.66 302.51,276.91 302.39,278.60 ZM 303.37 282.12 L 304.54 283.78 C304.48,284.10 304.41,284.41 304.34,284.73 C303.88,286.95 303.58,288.44 303.47,289.53 C303.44,289.59 303.42,289.65 303.39,289.71 C303.42,289.43 303.47,289.13 303.54,288.81 C303.92,287.08 303.74,286.00 303.08,286.00 C302.72,286.00 302.40,286.63 302.21,287.58 C302.22,286.60 302.26,285.50 302.31,284.24 C302.38,282.55 302.41,281.04 302.41,279.71 C302.51,280.61 302.84,281.36 303.37,282.12 ZM 338.97 381.89 C339.48,381.35 340.03,380.45 340.33,379.65 C340.78,378.44 341.59,378.01 342.65,378.42 C343.67,378.81 344.81,378.29 345.70,377.02 C346.16,376.36 346.92,375.80 347.77,375.43 C346.91,375.80 346.15,376.37 345.66,377.07 C344.35,378.94 341.52,380.80 338.97,381.89 ZM 307.99 309.52 C308.43,308.37 309.05,307.42 309.62,306.86 C309.37,307.23 309.33,307.73 309.58,308.14 C309.92,308.68 309.37,309.75 308.35,310.50 C307.97,310.78 307.50,311.00 306.91,311.17 C307.40,310.83 307.69,310.31 307.99,309.52 ZM 299.13 459.25 C298.37,460.21 297.59,461.00 297.38,461.00 C296.55,461.00 297.08,460.18 298.75,458.87 C300.34,457.63 300.37,457.66 299.13,459.25 ZM 371.94 272.73 C372.75,270.60 373.45,267.56 374.00,263.84 C373.90,267.47 373.33,269.91 371.94,272.73 ZM 343.27 346.95 C342.69,345.89 341.73,344.71 340.64,343.76 C340.90,343.91 341.10,344.00 341.20,344.00 C342.07,344.00 342.77,345.06 343.27,346.95 ZM 400.68 394.81 C400.18,393.89 401.29,392.62 404.21,390.17 C404.23,390.15 404.25,390.13 404.28,390.11 C404.02,390.38 403.75,390.64 403.47,390.89 C401.64,392.55 400.77,393.91 400.68,394.81 ZM 324.21 322.15 C324.01,322.19 323.78,322.25 323.54,322.35 C322.55,322.73 321.99,324.25 322.01,325.42 C321.84,324.38 322.16,323.02 323.06,322.46 C323.36,322.28 323.76,322.18 324.21,322.15 ZM 296.28 310.63 C296.86,310.86 297.85,311.11 299.02,311.31 C298.24,311.25 297.40,311.17 296.50,311.07 C296.19,311.04 296.13,310.87 296.28,310.63 ZM 338.73 342.33 C336.98,341.08 336.00,340.13 335.75,339.36 C336.05,339.84 336.66,340.46 337.63,341.35 C338.00,341.70 338.37,342.03 338.73,342.33 ZM 411.85 394.23 C412.46,393.50 413.07,392.42 413.59,391.26 C413.32,392.47 412.77,393.42 411.85,394.23 ZM 305.16 277.49 C305.18,277.51 305.19,277.52 305.20,277.54 C305.35,277.69 305.33,278.61 305.16,279.97 C305.18,278.92 305.16,278.03 305.12,277.75 C305.10,277.66 305.12,277.57 305.16,277.49 ZM 397.02 333.03 C397.80,334.49 398.05,335.46 397.86,335.91 C397.87,335.38 397.61,334.47 397.08,333.19 C397.03,333.08 396.99,332.98 396.94,332.88 C396.96,332.93 396.99,332.98 397.02,333.03 ZM 297.70 309.49 C298.19,309.88 297.97,309.98 297.00,310.00 C297.32,309.79 297.55,309.63 297.70,309.49 ZM 416.01 356.93 C416.17,356.35 416.36,355.73 416.58,355.04 C417.35,352.70 417.73,350.38 417.62,349.04 C417.83,350.31 417.47,352.29 416.49,355.38 C416.31,355.95 416.15,356.46 416.01,356.93 ZM 295.32 304.93 C296.21,305.49 296.75,306.30 296.46,307.03 C296.53,306.23 296.06,305.46 295.32,304.93 ZM 296.24 307.89 C296.31,308.28 296.57,308.70 296.99,309.00 C296.43,308.93 296.14,308.48 296.24,307.89 ZM 302.56 292.97 C302.93,294.20 303.47,295.33 304.05,296.15 C303.91,295.97 303.77,295.77 303.62,295.54 C303.13,294.79 302.78,294.01 302.56,292.97 ZM 366.49 296.31 C366.72,292.66 367.60,287.91 368.72,286.13 C367.90,287.43 366.97,291.29 366.64,294.69 C366.58,295.28 366.53,295.82 366.49,296.31 ZM 288.66 462.17 C288.73,462.08 288.81,461.99 288.89,461.89 C289.62,460.99 290.18,460.47 290.69,460.29 C290.17,460.62 289.46,461.26 288.66,462.17 ZM 355.22 357.61 C355.62,358.44 355.91,359.59 356.10,361.12 C355.80,359.51 355.53,358.39 355.22,357.61 ZM 280.02 414.98 C280.88,413.88 282.33,412.99 283.79,412.97 C282.44,412.98 280.95,413.91 280.02,414.98 ZM 292.94 457.43 C293.31,457.24 293.67,457.08 294.00,456.96 C296.29,456.11 297.69,455.49 298.59,454.72 C297.69,455.49 296.29,456.12 294.00,457.00 C293.63,457.14 293.28,457.28 292.94,457.43 ZM 357.96 351.31 C357.88,352.27 357.60,353.13 357.11,353.43 C356.97,353.52 356.78,353.55 356.57,353.51 C357.28,353.51 357.81,352.74 357.96,351.31 ZM 303.41 450.59 C303.80,450.03 304.30,449.59 304.93,449.24 C304.56,449.50 304.20,449.80 303.86,450.14 ZM 382.86 403.93 C382.87,403.85 382.88,403.79 382.89,403.75 C382.95,403.37 383.48,403.05 384.11,403.01 C383.53,403.05 383.11,403.40 382.86,403.93 ZM 296.56 276.39 C296.69,274.00 297.20,272.39 298.03,271.65 C297.20,272.49 296.68,274.13 296.56,276.39 ZM 278.30 420.62 C278.37,420.16 278.60,419.75 278.95,419.53 C278.96,419.52 278.97,419.52 278.98,419.51 C278.94,419.57 278.90,419.62 278.85,419.68 C278.60,419.99 278.41,420.31 278.30,420.62 ZM 351.50 355.51 C351.82,355.81 352.32,356.00 352.98,356.00 C353.03,356.00 353.08,356.00 353.13,356.00 C353.06,356.00 352.99,356.00 352.92,356.00 C352.17,356.00 351.72,355.91 351.50,355.51 ZM 397.97 396.94 C398.17,396.80 398.38,396.69 398.58,396.61 C399.11,396.40 399.71,396.35 400.29,396.39 C399.43,396.35 398.59,396.56 397.97,396.94 ZM 378.85 321.82 C378.42,321.79 377.97,321.79 377.51,321.81 C375.50,321.88 372.74,321.22 371.39,320.34 C372.74,321.22 375.54,321.88 377.62,321.80 C378.04,321.79 378.46,321.79 378.85,321.82 ZM 387.19 330.00 C388.33,330.00 391.04,331.61 393.22,333.58 C391.00,331.60 388.31,330.00 387.19,330.00 ZM 334.00 381.94 C334.00,382.37 334.38,382.67 334.94,382.83 C334.70,382.80 334.50,382.74 334.35,382.63 C334.13,382.45 334.00,382.21 334.00,381.94 ZM 366.57 190.92 C368.35,190.88 370.22,191.20 372.25,191.89 C370.26,191.22 368.36,190.90 366.57,190.92 ZM 388.97 401.15 C389.11,401.08 389.24,401.01 389.38,400.94 C389.78,400.72 390.20,400.52 390.61,400.34 L 389.60 400.84 C389.39,400.95 389.18,401.05 388.97,401.15 ZM 347.85 422.89 C347.45,422.84 347.21,422.69 347.13,422.47 C347.27,422.67 347.52,422.81 347.85,422.89 ZM 279.54 418.10 C279.52,418.05 279.50,418.00 279.47,417.95 C279.41,417.85 279.36,417.75 279.32,417.64 C279.35,417.68 279.38,417.71 279.41,417.74 C279.49,417.83 279.54,417.95 279.54,418.10 ZM 277.03 456.48 C277.10,457.21 277.46,457.99 278.06,458.19 C277.44,457.98 277.08,457.21 277.03,456.48 ZM 306.56 296.94 C306.66,296.85 306.78,296.84 306.91,296.90 C306.83,296.89 306.75,296.90 306.67,296.92 C306.64,296.92 306.60,296.93 306.56,296.94 ZM 340.72 371.51 C340.22,371.85 339.88,372.35 339.71,373.00 C339.89,372.32 340.21,371.83 340.72,371.51 ZM 277.94 446.22 L 277.94 446.26 C277.99,445.06 278.00,443.46 278.00,441.37 C278.00,443.44 277.99,445.02 277.94,446.22 ZM 310.26 306.39 L 310.26 306.38 Z" fill="rgb(254,254,253)"/>
<path d="M 288.18 449.02 C289.46,448.48 292.30,446.92 294.50,445.55 C296.70,444.18 300.81,441.91 303.64,440.51 C306.47,439.11 310.30,436.93 312.14,435.68 C313.99,434.43 317.53,432.43 320.02,431.23 C322.50,430.03 326.78,427.60 329.52,425.84 C332.26,424.08 336.75,421.51 339.50,420.14 C342.25,418.76 345.85,416.64 347.50,415.43 C349.15,414.22 352.78,412.08 355.56,410.69 C358.35,409.30 361.21,407.45 361.94,406.58 C362.66,405.71 363.89,405.00 364.69,405.00 C365.48,405.00 367.57,403.93 369.32,402.62 C371.07,401.30 373.62,399.90 375.00,399.50 C376.38,399.10 378.40,397.98 379.50,397.01 C380.60,396.04 385.00,393.34 389.28,391.01 C403.62,383.22 409.10,375.91 409.18,364.48 C409.24,355.77 404.41,345.97 398.46,342.75 C393.76,340.20 384.24,334.55 375.89,329.36 C371.16,326.41 366.60,324.00 365.76,324.00 C363.83,324.00 356.45,315.81 353.93,310.85 C352.54,308.14 352.00,305.01 352.00,299.69 C352.00,289.03 353.39,285.78 362.73,274.57 L 366.00 270.64 L 366.00 258.44 C366.00,242.40 365.69,242.11 355.26,248.64 C350.99,251.31 345.81,254.27 343.75,255.20 C341.69,256.14 340.00,257.27 340.00,257.72 C340.00,258.18 336.96,260.07 333.25,261.93 C324.28,266.42 316.52,272.69 314.60,277.00 C311.51,283.94 310.63,289.80 311.97,294.32 C313.88,300.70 316.85,305.98 320.34,309.17 C323.62,312.17 336.19,320.00 337.73,320.00 C338.22,320.00 340.16,321.17 342.06,322.61 C343.95,324.04 347.08,325.96 349.00,326.88 C355.88,330.15 360.76,334.16 364.11,339.29 C367.09,343.87 367.50,345.12 367.80,352.53 C367.35,349.50 366.45,346.57 365.10,344.02 C362.27,338.68 357.50,333.00 355.84,333.00 C355.39,333.00 351.75,330.91 347.76,328.35 C343.77,325.79 339.15,323.08 337.50,322.34 C335.85,321.60 330.46,318.40 325.53,315.24 C317.53,310.12 316.24,308.86 313.53,303.57 C310.87,298.37 310.50,296.62 310.50,289.32 C310.50,285.10 310.26,281.58 309.95,281.07 C310.05,281.02 310.15,281.00 310.24,281.00 C310.87,281.00 310.83,280.50 310.15,279.68 C309.78,279.23 309.63,278.71 309.73,277.99 C309.65,278.83 309.90,279.43 310.54,279.66 C311.12,279.86 312.12,278.54 312.78,276.73 C314.33,272.45 320.25,266.71 326.71,263.25 C338.16,257.11 349.78,250.53 354.50,247.51 C359.98,244.01 365.83,241.00 367.15,241.00 C367.62,241.00 368.00,248.17 368.00,256.94 C368.00,271.85 367.87,272.98 365.96,274.31 C362.53,276.72 356.03,286.17 354.87,290.45 C354.27,292.68 353.99,297.47 354.24,301.11 C354.78,308.72 357.23,313.80 362.80,318.87 C366.24,321.99 385.59,333.98 387.23,333.99 C389.20,334.01 403.31,344.55 406.34,348.26 C412.54,355.87 413.69,365.82 409.43,374.98 C406.13,382.07 400.34,387.53 389.91,393.39 C385.28,395.98 377.00,400.79 371.50,404.07 C366.00,407.35 360.04,410.71 358.25,411.53 C356.46,412.36 352.41,414.70 349.25,416.75 C346.09,418.79 341.00,421.82 337.95,423.48 C329.36,428.16 322.39,432.15 315.66,436.27 C312.27,438.35 307.70,440.94 305.50,442.04 C303.30,443.13 299.48,445.36 297.00,447.00 C292.28,450.12 284.48,454.00 282.92,454.00 C282.41,454.00 282.00,448.22 282.00,441.00 C282.00,433.75 281.68,428.96 281.17,428.13 C281.25,427.94 281.32,427.82 281.40,427.77 C282.19,427.24 282.18,427.03 281.36,427.02 C281.27,427.01 281.18,426.98 281.09,426.93 C281.58,427.04 282.00,426.29 282.00,424.57 C282.00,422.16 285.07,419.85 296.77,413.46 C298.82,412.34 303.88,409.47 308.00,407.09 C327.96,395.56 335.05,391.44 341.50,387.62 C345.35,385.34 349.81,382.81 351.41,381.99 C355.70,379.80 361.73,374.11 364.72,369.69 C360.68,377.62 358.77,379.57 353.00,382.68 C347.56,385.61 341.23,389.81 340.53,390.96 C340.17,391.53 339.18,392.00 338.33,392.00 C337.47,392.00 333.52,394.02 329.55,396.50 C325.58,398.98 321.81,401.00 321.17,401.00 C320.52,401.00 320.00,401.45 320.00,402.00 C320.00,402.55 319.44,403.01 318.75,403.02 C317.10,403.05 298.35,414.09 294.44,417.33 C292.76,418.72 290.19,420.17 288.73,420.53 C284.12,421.69 283.68,423.14 283.81,436.79 C283.87,443.78 283.94,449.61 283.96,449.75 C284.05,450.29 285.98,449.95 288.18,449.02 ZM 311.95 272.95 C314.47,268.58 317.01,266.22 322.49,263.04 C321.76,263.51 321.01,263.99 320.22,264.50 C317.06,266.54 313.96,269.90 311.95,272.95 ZM 330.01 258.35 C330.50,257.98 330.85,257.68 331.03,257.47 C331.70,256.66 332.80,256.00 333.47,256.00 C333.62,256.00 333.81,255.95 334.02,255.87 C333.72,256.08 333.44,256.26 333.19,256.41 C332.04,257.11 330.99,257.75 330.01,258.35 ZM 279.44 446.94 C279.49,445.29 279.58,443.25 279.70,440.70 C279.78,439.11 279.88,437.61 279.99,436.23 C279.95,439.82 279.72,444.29 279.44,446.94 ZM 344.09 356.45 L 344.09 356.57 C344.09,356.80 344.08,357.02 344.08,357.23 C343.84,361.90 343.21,366.35 342.50,366.00 C342.42,365.96 342.35,365.91 342.28,365.86 C342.35,365.89 342.42,365.91 342.50,365.92 C343.24,366.00 343.88,361.21 344.09,356.45 ZM 279.72 423.52 C279.50,422.18 279.51,420.83 279.93,420.27 C280.04,420.12 280.38,419.87 280.87,419.56 C279.54,420.53 279.44,421.47 279.72,423.52 ZM 337.46 253.17 C338.45,252.48 339.69,252.00 340.62,252.00 C341.88,252.00 343.73,251.15 344.71,250.10 C343.73,251.15 341.96,252.00 340.79,252.00 C339.84,252.00 338.48,252.49 337.46,253.17 ZM 367.01 364.84 C367.34,363.74 367.60,362.59 367.79,361.41 C367.64,362.71 367.39,363.77 367.01,364.84 ZM 306.70 290.71 C306.74,288.78 307.16,286.60 307.75,284.79 C307.18,286.67 306.74,288.92 306.70,290.71 ZM 341.84 365.02 C341.83,364.84 341.86,364.67 341.93,364.50 C342.07,364.16 342.18,363.65 342.25,363.03 C342.18,363.70 342.07,364.25 341.93,364.65 C341.88,364.78 341.85,364.90 341.84,365.02 ZM 280.84 455.00 L 282.90 457.50 L 281.00 455.20 C280.95,455.14 280.89,455.07 280.84,455.00 Z" fill="rgb(50,170,229)"/>
<path d="M 359.00 242.04 L 364.50 239.23 L 359.74 238.50 C358.57,238.32 357.59,238.12 356.80,237.92 C358.03,238.17 359.80,238.41 362.16,238.64 C365.65,238.99 369.06,239.72 369.75,240.26 C370.65,240.97 371.00,245.41 371.00,256.09 C371.00,269.21 370.89,270.95 368.89,274.69 C368.79,274.44 368.00,275.02 366.50,276.41 C365.12,277.69 364.00,279.41 364.00,280.25 C364.00,281.08 363.10,282.00 362.00,282.29 C361.31,282.47 360.78,282.86 360.41,283.45 L 360.41 283.45 C360.34,283.55 360.29,283.66 360.24,283.77 C360.02,284.22 359.89,284.77 359.85,285.41 C359.81,286.02 359.78,286.55 359.75,287.03 C359.64,287.61 359.49,288.17 359.33,288.58 C358.94,289.59 359.00,289.98 359.51,289.77 C359.39,290.51 359.24,290.75 358.98,291.00 L 358.97 291.01 C358.96,291.01 358.96,291.01 358.95,291.01 C358.43,291.00 357.73,292.54 357.16,294.52 C356.50,296.37 356.00,298.50 356.00,299.88 C356.00,300.24 356.06,300.69 356.17,301.20 L 356.32 304.50 L 356.55 302.65 C357.74,306.53 360.59,312.13 362.15,313.09 C363.32,313.82 364.19,313.65 364.42,312.90 C365.00,317.08 366.09,319.00 367.88,319.00 C368.27,319.00 368.81,319.12 369.38,319.32 C368.89,319.16 368.53,319.14 368.39,319.27 L 368.39 319.27 C368.09,319.57 368.74,320.10 369.83,320.45 C370.92,320.79 372.07,321.73 372.38,322.54 C372.68,323.34 373.81,324.00 374.89,324.00 C377.92,324.00 380.00,325.08 380.00,326.64 C380.00,327.88 382.10,329.18 384.49,329.64 C385.38,329.87 386.31,330.00 387.19,330.00 L 387.20 330.00 C388.32,330.00 391.00,331.60 393.22,333.58 C393.25,333.61 393.29,333.64 393.32,333.67 C396.35,336.40 397.84,337.15 397.86,335.91 C397.95,335.71 397.94,335.40 397.84,335.00 C398.68,336.63 399.71,338.00 400.41,338.00 C401.17,338.00 403.15,339.54 404.80,341.43 C406.46,343.31 408.06,344.60 408.37,344.29 C408.77,343.90 409.60,344.14 410.56,344.77 C407.65,343.32 407.57,344.77 410.35,348.79 C411.81,350.89 413.00,353.15 413.00,353.80 C413.00,355.10 414.19,355.29 415.03,354.49 C414.39,355.52 414.03,359.45 414.12,364.62 C414.24,372.14 413.93,374.06 412.07,377.19 C410.21,380.32 410.03,381.43 410.88,384.53 C410.95,384.78 411.01,385.03 411.06,385.29 C411.00,384.99 410.92,384.68 410.84,384.37 C409.85,380.81 409.70,380.69 408.39,382.48 C407.63,383.52 407.00,385.12 407.00,386.03 C407.00,386.16 406.97,386.32 406.90,386.50 C406.58,386.37 405.47,387.23 404.16,388.66 C402.60,390.37 399.93,392.08 398.22,392.45 C396.34,392.86 395.31,393.58 394.93,394.77 C394.67,394.23 393.55,394.66 391.46,396.04 L 388.50 397.99 L 388.90 397.99 C386.91,398.64 384.62,400.16 380.70,403.23 C378.95,404.60 378.78,405.14 379.85,405.85 C379.93,405.91 380.02,405.97 380.09,406.05 C379.16,405.34 377.42,405.39 375.07,406.28 C372.91,407.10 371.92,408.07 371.95,408.90 C371.27,408.37 370.57,408.00 370.19,408.00 C368.73,408.00 362.02,415.23 362.61,416.17 C362.71,416.33 362.84,416.47 363.01,416.58 C362.55,416.55 362.06,416.51 361.53,416.46 C356.54,416.00 354.97,416.25 351.80,418.07 C350.24,418.55 347.03,421.12 347.00,422.05 C347.00,421.36 345.62,421.99 343.92,423.41 C342.23,424.83 340.21,426.00 339.42,426.00 C338.64,426.00 338.00,426.69 338.00,427.53 C338.00,427.61 337.99,427.70 337.98,427.78 C337.48,427.58 335.78,428.00 333.25,429.09 C330.37,430.33 329.00,431.53 329.00,432.83 C329.00,432.89 328.99,432.95 328.99,433.02 C328.86,432.20 327.95,432.60 325.75,434.39 C324.96,435.03 324.05,435.70 323.17,436.30 C324.10,435.15 323.81,435.22 321.38,436.49 C319.80,437.31 317.56,437.99 316.41,437.99 C315.26,438.00 312.79,439.13 310.91,440.51 C301.06,447.77 297.84,449.84 290.70,453.50 L 282.90 457.50 L 280.84 455.01 L 280.84 455.00 C279.65,453.50 279.31,452.19 279.44,446.94 C279.72,444.29 279.95,439.82 279.99,436.23 C280.31,432.17 280.74,429.17 281.17,428.13 C281.68,428.96 282.00,433.75 282.00,441.00 C282.00,448.22 282.41,454.00 282.92,454.00 C284.48,454.00 292.28,450.12 297.00,447.00 C299.48,445.36 303.30,443.13 305.50,442.04 C307.70,440.94 312.27,438.35 315.66,436.27 C322.39,432.15 329.36,428.16 337.95,423.48 C341.00,421.82 346.09,418.79 349.25,416.75 C352.41,414.70 356.46,412.36 358.25,411.53 C360.04,410.71 366.00,407.35 371.50,404.07 C377.00,400.79 385.28,395.98 389.91,393.39 C400.34,387.53 406.13,382.07 409.43,374.98 C413.69,365.82 412.54,355.87 406.34,348.26 C403.31,344.55 389.20,334.01 387.23,333.99 C385.59,333.98 366.24,321.99 362.80,318.87 C357.23,313.80 354.78,308.72 354.24,301.11 C353.99,297.47 354.27,292.68 354.87,290.45 C356.03,286.17 362.53,276.72 365.96,274.31 C367.87,272.98 368.00,271.85 368.00,256.94 C368.00,248.17 367.62,241.00 367.15,241.00 C365.83,241.00 359.98,244.01 354.50,247.51 C349.78,250.53 338.16,257.11 326.71,263.25 C320.25,266.71 314.33,272.45 312.78,276.73 C312.12,278.54 311.12,279.86 310.54,279.66 C309.90,279.43 309.65,278.83 309.73,277.99 C309.84,277.14 310.30,276.01 311.13,274.43 C311.41,273.91 311.68,273.42 311.95,272.95 C313.96,269.90 317.06,266.54 320.22,264.50 C321.01,263.99 321.76,263.51 322.49,263.04 C322.87,262.83 323.25,262.61 323.65,262.38 C326.16,260.98 328.63,259.40 330.01,258.35 C330.99,257.75 332.04,257.11 333.19,256.41 C333.44,256.26 333.72,256.08 334.02,255.87 C334.74,255.58 335.73,254.85 336.50,254.00 C336.77,253.70 337.10,253.42 337.46,253.17 C338.48,252.49 339.84,252.00 340.79,252.00 C341.96,252.00 343.73,251.15 344.71,250.10 C345.69,249.06 348.08,247.46 350.00,246.54 C351.92,245.62 355.98,243.59 359.00,242.04 ZM 333.42 325.47 C333.32,325.57 333.31,325.69 333.41,325.85 C333.69,326.31 333.40,326.90 332.76,327.24 C331.98,327.52 330.82,327.42 330.12,326.72 C329.99,326.59 329.87,326.44 329.75,326.27 C330.56,327.21 331.89,327.69 332.85,327.09 C333.81,326.50 333.48,325.53 331.47,323.15 C330.02,321.42 328.20,320.00 327.45,320.00 C326.69,320.00 324.46,318.59 322.50,316.87 C320.54,315.14 318.84,313.91 318.72,314.12 C318.62,314.28 318.23,314.99 317.77,315.82 C317.93,314.86 317.29,313.87 315.53,312.04 C313.93,310.37 312.25,309.00 311.78,309.00 C311.53,309.00 311.31,309.06 311.12,309.18 C311.24,308.75 311.27,308.33 311.21,307.92 C311.28,307.97 311.37,307.96 311.47,307.86 C311.49,307.85 311.50,307.82 311.51,307.78 C311.54,307.78 311.57,307.77 311.59,307.74 C311.60,307.73 311.61,307.71 311.61,307.69 C311.64,307.68 311.67,307.66 311.70,307.64 C311.79,307.55 311.37,306.27 310.68,304.45 C310.38,303.61 310.01,302.66 309.61,301.67 C309.10,300.42 308.68,299.44 308.33,298.71 C307.73,297.39 307.39,296.88 307.21,297.03 C307.11,296.96 307.01,296.91 306.91,296.90 C306.78,296.84 306.66,296.85 306.56,296.94 C306.47,296.96 306.39,297.01 306.32,297.08 C306.18,297.22 306.04,297.31 305.90,297.35 C306.05,297.30 306.19,297.21 306.34,297.06 C307.05,296.35 306.68,295.29 305.13,293.64 C305.09,293.60 305.05,293.55 305.01,293.51 C305.21,293.69 305.39,293.85 305.55,293.98 C306.77,295.13 306.78,294.64 306.70,291.29 L 306.70 291.23 C306.70,291.06 306.70,290.89 306.70,290.71 L 306.70 290.71 C306.75,288.91 307.18,286.67 307.75,284.79 C307.84,284.52 307.93,284.26 308.03,284.01 L 308.03 284.00 C308.61,282.48 309.31,281.34 309.95,281.07 C310.26,281.58 310.50,285.10 310.50,289.32 C310.50,296.62 310.87,298.37 313.53,303.57 C316.24,308.86 317.53,310.12 325.53,315.24 C330.46,318.40 335.85,321.60 337.50,322.34 C339.15,323.08 343.77,325.79 347.76,328.35 C351.75,330.91 355.39,333.00 355.84,333.00 C357.50,333.00 362.27,338.68 365.10,344.02 C366.45,346.57 367.35,349.50 367.80,352.53 C367.81,352.88 367.83,353.23 367.84,353.60 C367.98,357.19 367.99,359.54 367.79,361.41 C367.60,362.59 367.34,363.74 367.01,364.84 C366.74,365.56 366.42,366.29 366.02,367.10 C365.56,368.03 365.13,368.89 364.72,369.69 C361.73,374.11 355.70,379.80 351.41,381.99 C349.81,382.81 345.35,385.34 341.50,387.62 C335.05,391.44 327.96,395.56 308.00,407.09 C303.88,409.47 298.82,412.34 296.77,413.46 C285.07,419.85 282.00,422.16 282.00,424.57 C282.00,426.29 281.58,427.04 281.09,426.93 C280.50,426.55 279.96,425.04 279.72,423.52 C279.44,421.47 279.54,420.53 280.87,419.56 C281.73,419.02 283.07,418.31 284.47,417.66 C286.65,416.65 289.04,414.96 289.77,413.91 C290.57,412.77 292.29,412.00 294.02,412.00 C295.91,412.00 297.31,411.30 298.00,410.00 C298.59,408.90 299.77,408.00 300.63,408.00 C301.50,408.00 303.04,407.43 304.82,406.50 L 304.83 406.50 C306.84,405.46 309.15,403.98 311.13,402.42 C312.34,401.46 312.97,400.92 313.10,400.50 C313.19,400.32 313.18,400.18 313.06,400.10 C313.01,400.00 312.92,399.90 312.80,399.80 C314.25,399.97 316.41,398.88 318.35,397.14 L 317.90 397.77 L 316.53 399.50 L 316.91 399.17 L 316.67 399.50 L 319.59 396.91 C321.19,395.48 325.20,393.26 328.50,391.97 C334.42,389.67 336.06,388.64 344.10,382.25 C346.35,380.46 348.76,379.00 349.47,379.00 C350.17,379.00 352.78,377.87 355.26,376.48 C358.76,374.52 360.24,372.86 361.89,369.04 C363.05,366.34 364.00,363.64 364.00,363.05 C364.00,362.46 364.55,361.10 365.22,360.03 C366.17,358.50 366.17,357.36 365.22,354.72 C364.55,352.87 364.00,350.24 364.00,348.87 C364.00,347.51 362.88,344.86 361.50,343.00 C360.12,341.14 359.00,339.06 359.00,338.38 C359.00,337.70 356.49,335.96 353.42,334.51 C350.35,333.05 346.46,330.55 344.77,328.93 C343.08,327.32 340.98,325.96 340.10,325.92 C339.22,325.87 337.22,325.63 335.66,325.37 C334.40,325.17 333.63,325.20 333.42,325.47 ZM 336.01 338.03 C335.48,338.40 335.36,338.76 335.75,339.36 C335.80,339.51 335.87,339.66 335.97,339.82 L 334.64 338.59 ZM 308.95 306.61 C307.98,307.28 306.39,306.99 305.20,305.80 C304.71,305.31 304.32,304.27 304.16,303.19 C304.55,305.61 306.51,307.40 308.32,306.71 C308.56,306.61 308.77,306.59 308.95,306.61 ZM 310.32 310.83 C310.20,312.11 310.58,313.89 311.49,315.61 C311.47,315.58 311.46,315.55 311.44,315.53 C310.17,313.15 309.85,312.02 310.32,310.83 ZM 367.49 277.38 C366.66,279.18 366.29,280.62 366.65,280.88 C366.82,281.00 366.98,281.16 367.12,281.35 C366.96,281.16 366.78,280.98 366.58,280.84 C366.05,280.46 366.38,279.07 367.33,277.62 ZM 378.71 410.54 C377.46,410.95 375.88,410.99 374.54,410.59 C375.36,410.73 376.35,410.77 377.50,410.69 C377.96,410.66 378.36,410.62 378.71,410.54 ZM 311.42 398.87 C310.67,398.42 310.15,398.16 309.79,398.11 C310.27,397.86 310.89,398.09 311.42,398.87 ZM 411.85 394.23 C411.67,394.38 411.48,394.53 411.28,394.68 C412.11,393.87 412.95,392.62 413.63,391.09 C413.62,391.15 413.61,391.21 413.59,391.26 C413.07,392.42 412.46,393.50 411.85,394.23 ZM 309.36 305.46 C308.84,305.17 308.23,304.95 307.54,304.83 C307.11,304.75 306.66,304.50 306.24,304.14 C306.61,304.43 307.02,304.64 307.46,304.75 C307.58,304.79 307.69,304.81 307.81,304.83 C308.14,304.87 308.46,304.96 308.77,305.08 C309.03,305.19 309.23,305.32 309.36,305.46 ZM 309.52 307.04 C309.66,307.33 309.69,307.74 309.61,308.19 C309.60,308.17 309.59,308.15 309.58,308.14 C309.37,307.80 309.36,307.39 309.52,307.04 ZM 356.39 235.62 L 356.42 235.61 C355.07,236.21 354.49,236.70 354.77,237.11 C354.64,237.01 354.56,236.91 354.51,236.81 C354.63,236.44 355.22,236.12 356.39,235.62 ZM 413.83 347.96 C414.30,348.61 414.70,349.28 414.97,349.92 C415.46,351.12 415.71,351.99 415.72,352.70 C415.66,351.42 414.88,349.57 413.83,347.96 ZM 396.88 332.76 C396.38,331.68 396.21,330.48 396.51,329.98 C396.52,329.96 396.54,329.94 396.55,329.92 C396.27,330.43 396.46,331.53 396.88,332.76 ZM 408.54 395.07 L 408.55 395.08 C408.10,394.70 408.12,394.04 409.05,393.47 C408.45,393.84 408.23,394.56 408.54,395.07 ZM 362.32 307.50 C361.12,305.51 359.79,303.83 358.88,303.24 C359.87,303.83 361.20,305.56 362.32,307.50 ZM 320.20 438.02 C319.47,438.35 318.77,438.89 318.17,439.52 C318.84,438.73 319.58,438.13 320.20,438.02 ZM 335.57 431.11 C336.23,432.16 338.55,432.22 340.08,431.58 C338.66,432.19 336.55,432.21 335.68,431.35 C335.62,431.28 335.58,431.20 335.57,431.11 ZM 321.09 393.98 C321.58,393.24 321.99,392.47 322.29,391.68 C322.51,391.10 322.93,390.65 323.47,390.37 C322.94,390.65 322.53,391.10 322.32,391.68 C321.96,392.66 321.41,393.68 321.09,393.98 ZM 380.80 408.38 C380.84,408.09 380.86,407.83 380.84,407.58 C380.90,407.93 380.90,408.28 380.84,408.62 C380.79,408.89 380.67,409.14 380.51,409.37 C380.65,409.09 380.75,408.76 380.80,408.38 ZM 296.72 407.39 C296.73,407.40 296.75,407.41 296.77,407.42 C296.40,407.34 296.31,406.85 296.50,406.08 C296.38,406.67 296.45,407.12 296.72,407.39 ZM 344.09 356.45 L 344.09 356.49 C344.14,352.60 343.87,349.43 343.35,347.26 C343.88,349.44 344.15,352.61 344.09,356.45 ZM 367.32 416.41 C367.93,416.12 368.47,415.73 368.81,415.25 C368.41,415.82 367.98,416.19 367.32,416.41 ZM 414.35 389.18 C414.55,388.56 414.71,388.02 414.84,387.56 C414.75,388.00 414.62,388.48 414.47,388.96 C414.43,389.03 414.39,389.11 414.35,389.18 ZM 369.94 319.54 C370.54,319.79 371.15,320.12 371.66,320.47 C371.73,320.52 371.81,320.57 371.89,320.62 C371.73,320.54 371.57,320.45 371.43,320.36 C371.42,320.35 371.40,320.35 371.39,320.34 L 371.39 320.34 C370.89,320.01 370.38,319.73 369.94,319.54 ZM 308.14 310.64 C307.79,310.90 307.38,311.08 306.84,311.22 C306.87,311.20 306.89,311.18 306.91,311.17 C307.40,311.03 307.80,310.86 308.14,310.64 ZM 342.28 355.97 C342.54,358.17 342.59,360.50 342.33,362.17 C342.33,362.13 342.33,362.09 342.34,362.05 C342.58,360.38 342.53,358.11 342.28,355.97 ZM 297.20 407.38 C297.78,407.16 298.75,406.41 299.70,405.38 C298.58,406.58 297.75,407.21 297.20,407.38 ZM 303.37 289.76 C303.39,289.40 303.46,289.03 303.56,288.63 C303.60,288.47 303.63,288.31 303.66,288.16 C303.63,288.36 303.59,288.58 303.54,288.81 C303.47,289.13 303.42,289.43 303.39,289.71 C303.38,289.73 303.38,289.74 303.37,289.76 ZM 337.53 428.82 C337.30,429.13 337.00,429.40 336.67,429.56 C337.04,429.28 337.33,429.03 337.53,428.82 ZM 316.47 443.96 C316.41,443.85 316.37,443.73 316.35,443.60 C316.38,443.75 316.43,443.89 316.51,444.02 C316.94,444.71 316.59,445.02 315.79,444.96 C316.58,445.01 316.92,444.68 316.47,443.96 ZM 398.87 329.13 C399.71,329.43 400.52,330.25 400.99,331.47 C400.53,330.27 399.71,329.45 398.87,329.13 ZM 338.54 329.84 C337.70,329.98 336.72,330.57 335.70,331.63 C336.72,330.58 337.69,329.98 338.52,329.84 ZM 326.46 322.42 C326.08,322.32 325.69,322.24 325.31,322.19 C325.30,322.18 325.29,322.18 325.28,322.18 C325.67,322.23 326.07,322.31 326.46,322.42 ZM 304.10 302.32 C304.09,302.23 304.10,302.14 304.10,302.05 L 304.20 299.50 L 304.10 302.13 C304.10,302.19 304.10,302.26 304.10,302.32 ZM 324.21 322.15 C323.76,322.18 323.36,322.28 323.06,322.46 C323.38,322.27 323.79,322.17 324.26,322.14 C324.25,322.14 324.23,322.14 324.21,322.15 ZM 302.56 292.97 C302.55,292.93 302.54,292.89 302.53,292.85 C302.55,292.94 302.58,293.03 302.61,293.13 C302.59,293.07 302.57,293.02 302.56,292.97 ZM 368.81 415.25 C368.82,415.25 368.82,415.25 368.82,415.25 C369.19,414.73 369.62,414.37 370.24,414.13 C369.62,414.37 369.19,414.73 368.81,415.25 ZM 367.75 282.76 C367.77,282.86 367.79,282.96 367.80,283.06 C367.79,282.98 367.77,282.89 367.75,282.81 C367.75,282.79 367.75,282.78 367.75,282.76 ZM 303.09 286.00 C303.06,286.00 303.04,286.00 303.01,286.01 C303.03,286.00 303.06,286.00 303.08,286.00 Z" fill="rgb(244,253,253)"/>
<path d="M 278.09 461.27 C278.81,459.36 278.81,458.44 278.06,458.19 C276.83,457.78 276.61,455.00 277.80,455.00 C280.75,455.00 281.96,460.18 279.57,462.57 C277.42,464.73 276.93,464.30 278.09,461.27 ZM 287.00 462.77 C287.00,460.85 289.68,458.64 294.00,457.00 C298.82,455.16 299.67,454.38 300.32,451.17 C301.06,447.43 309.92,442.35 312.91,443.95 C315.37,445.27 317.31,445.31 316.51,444.02 C315.61,442.56 317.82,439.03 320.31,437.97 C321.51,437.46 323.96,435.85 325.75,434.39 C328.13,432.45 329.00,432.15 329.00,433.24 C329.00,434.07 327.43,435.81 325.51,437.12 C323.59,438.43 322.01,440.03 322.01,440.68 C322.00,441.33 320.67,442.81 319.05,443.97 C317.42,445.13 316.31,446.63 316.57,447.32 C316.92,448.25 315.64,448.51 311.66,448.33 C305.69,448.06 303.21,449.29 302.53,452.85 C302.28,454.15 301.61,455.76 301.05,456.44 C300.48,457.13 300.25,457.92 300.53,458.20 C301.37,459.04 298.01,461.37 295.67,461.57 C294.47,461.67 292.89,461.26 292.14,460.66 C291.10,459.82 290.32,460.12 288.89,461.89 C287.63,463.44 287.00,463.73 287.00,462.77 ZM 299.13 459.25 C300.37,457.66 300.34,457.63 298.75,458.87 C297.08,460.18 296.55,461.00 297.38,461.00 C297.59,461.00 298.37,460.21 299.13,459.25 ZM 272.00 461.50 C272.00,460.67 272.45,460.00 273.00,460.00 C273.55,460.00 274.00,460.67 274.00,461.50 C274.00,462.33 273.55,463.00 273.00,463.00 C272.45,463.00 272.00,462.33 272.00,461.50 ZM 272.75 456.43 C271.25,454.90 272.06,450.85 274.31,448.60 C277.20,445.71 278.05,436.19 275.64,433.78 C273.42,431.56 272.37,425.00 274.23,425.00 C276.45,425.00 278.00,431.74 278.00,441.37 C278.00,449.24 277.83,450.00 276.06,450.00 C274.56,450.00 274.05,450.81 273.81,453.59 C273.64,455.57 273.16,456.85 272.75,456.43 ZM 273.00 447.00 C273.00,446.45 273.48,446.00 274.06,446.00 C274.64,446.00 274.84,446.45 274.50,447.00 C274.16,447.55 273.68,448.00 273.44,448.00 C273.20,448.00 273.00,447.55 273.00,447.00 ZM 335.56 431.10 C335.26,430.61 335.68,429.95 336.51,429.64 C337.33,429.32 338.00,428.37 338.00,427.53 C338.00,426.69 338.64,426.00 339.42,426.00 C340.21,426.00 342.23,424.83 343.92,423.41 C345.62,421.99 347.00,421.36 347.00,422.03 C347.00,422.77 347.95,423.05 349.50,422.76 C351.45,422.38 352.00,422.69 352.00,424.17 C352.00,425.21 351.33,426.32 350.50,426.64 C349.67,426.95 349.00,427.89 349.00,428.72 C349.00,429.90 348.24,430.08 345.49,429.56 C342.81,429.06 341.83,429.27 341.38,430.45 C340.74,432.11 336.48,432.59 335.56,431.10 ZM 275.13 420.43 C272.34,417.65 272.89,414.48 276.01,415.29 C277.11,415.58 278.06,415.52 278.13,415.16 C278.20,414.80 278.36,413.60 278.49,412.50 C278.61,411.40 279.03,409.08 279.42,407.35 C279.81,405.57 279.69,403.93 279.15,403.59 C278.03,402.90 279.93,397.00 281.27,397.00 C281.73,397.00 282.01,400.16 281.90,404.01 C281.79,407.87 281.99,411.32 282.34,411.68 C282.70,412.03 283.83,411.56 284.85,410.64 C285.92,409.67 287.42,409.23 288.38,409.59 C289.93,410.19 289.92,410.34 288.28,411.59 C287.30,412.33 285.28,412.95 283.79,412.97 C281.05,413.00 278.34,416.13 279.47,417.95 C279.78,418.45 279.54,419.16 278.95,419.53 C278.35,419.90 278.11,420.83 278.40,421.60 C279.17,423.62 277.86,423.15 275.13,420.43 ZM 362.61 416.17 C362.02,415.23 368.73,408.00 370.19,408.00 C370.71,408.00 371.84,408.70 372.70,409.55 C374.86,411.71 380.37,411.08 380.84,408.62 C381.04,407.59 380.59,406.34 379.85,405.85 C378.78,405.14 378.95,404.60 380.70,403.23 C386.31,398.83 388.59,397.62 391.43,397.56 C393.80,397.51 394.57,397.00 394.81,395.32 C395.03,393.80 396.07,392.92 398.22,392.45 C399.93,392.08 402.60,390.37 404.16,388.66 C405.72,386.95 407.00,386.06 407.00,386.69 C407.00,387.31 405.74,388.88 404.21,390.17 C399.71,393.96 399.50,394.93 402.92,396.12 C406.18,397.26 406.99,399.41 404.53,400.35 C402.92,400.97 401.56,399.52 402.44,398.10 C403.15,396.95 400.43,395.90 398.58,396.61 C397.79,396.91 396.91,397.79 396.62,398.56 C396.32,399.33 395.44,399.72 394.65,399.42 C393.87,399.12 391.50,399.80 389.38,400.94 C387.26,402.07 384.96,403.00 384.26,403.00 C383.57,403.00 382.95,403.34 382.89,403.75 C382.83,404.16 382.60,406.08 382.39,408.00 C381.72,414.01 381.48,414.22 375.53,413.84 C371.22,413.57 369.81,413.87 368.82,415.25 C367.52,417.05 363.52,417.64 362.61,416.17 ZM 296.72 407.39 C295.87,406.54 297.02,403.89 299.59,400.77 C300.96,399.11 302.00,398.51 302.25,399.24 C302.66,400.49 306.08,398.76 309.11,395.76 C309.87,395.01 311.29,394.09 312.25,393.73 C313.21,393.36 314.00,392.34 314.00,391.46 C314.00,390.34 314.57,390.05 315.93,390.48 C318.40,391.26 327.80,386.25 329.35,383.32 C330.31,381.50 330.77,381.35 332.17,382.38 C333.73,383.52 333.70,383.84 331.83,386.81 C329.76,390.07 329.18,390.36 325.25,390.04 C323.87,389.93 322.72,390.57 322.29,391.68 C320.25,397.00 313.22,401.78 311.50,399.00 C310.45,397.31 309.00,397.89 309.00,400.00 C309.00,401.11 308.33,402.00 307.50,402.00 C306.67,402.00 306.00,402.41 306.00,402.91 C306.00,403.40 305.12,403.58 304.05,403.30 C302.78,402.97 301.26,403.70 299.70,405.38 C298.38,406.80 297.04,407.71 296.72,407.39 ZM 317.17 396.35 C319.33,394.39 319.53,393.00 317.65,393.00 C315.95,393.00 312.78,396.44 313.66,397.33 C314.65,398.32 315.15,398.17 317.17,396.35 ZM 408.54 395.07 C408.23,394.56 408.45,393.84 409.05,393.47 C411.10,392.20 411.91,388.25 410.88,384.53 C410.03,381.43 410.21,380.32 412.07,377.19 C413.93,374.06 414.24,372.14 414.12,364.62 C414.03,359.24 414.42,355.20 415.11,354.37 C415.96,353.34 415.93,352.24 414.97,349.92 C413.70,346.86 409.44,343.22 408.37,344.29 C408.06,344.60 406.46,343.31 404.80,341.43 C403.15,339.54 401.17,338.00 400.41,338.00 C398.87,338.00 395.70,331.30 396.57,329.89 C397.64,328.16 400.06,329.03 400.99,331.47 C401.53,332.88 403.05,334.23 404.54,334.60 C406.40,335.07 406.84,335.56 406.07,336.33 C403.14,339.26 406.60,339.96 410.70,337.28 L 413.33 335.55 L 412.72 339.32 C412.18,342.67 412.38,343.20 414.56,344.02 C415.91,344.54 416.94,345.30 416.85,345.73 C416.76,346.15 417.03,347.29 417.45,348.26 C417.90,349.28 417.53,352.14 416.58,355.04 C415.26,359.09 415.15,360.85 416.04,364.13 C416.64,366.37 416.89,368.44 416.60,368.73 C416.31,369.02 416.54,370.14 417.11,371.21 C417.69,372.28 417.83,373.91 417.43,374.83 C417.03,375.75 416.59,377.02 416.45,377.65 C416.32,378.28 415.24,379.76 414.07,380.93 C411.89,383.11 412.06,385.00 414.42,385.00 C415.47,385.00 415.43,385.90 414.23,389.53 C412.77,393.99 409.71,396.96 408.54,395.07 ZM 279.27 389.24 C277.80,385.92 277.74,372.00 279.20,372.00 C279.76,372.00 279.98,371.39 279.69,370.65 C279.09,369.06 282.07,366.19 283.75,366.75 C285.78,367.43 288.50,363.18 288.15,359.87 C287.97,358.11 288.23,357.03 288.77,357.36 C290.09,358.17 292.00,353.55 292.00,349.54 C292.00,345.92 288.58,336.98 286.78,335.86 C286.17,335.49 284.89,335.68 283.92,336.28 C281.49,337.80 279.14,335.73 279.73,332.61 C280.31,329.62 278.65,328.57 273.80,328.86 C271.71,328.98 270.00,328.63 270.00,328.07 C270.00,327.52 269.25,327.35 268.34,327.70 C267.22,328.13 266.91,327.96 267.39,327.17 C267.79,326.53 267.59,326.00 266.94,326.00 C266.09,326.00 266.13,325.51 267.09,324.25 C267.83,323.29 268.07,322.80 267.63,323.17 C267.19,323.53 265.93,322.93 264.82,321.82 C263.65,320.65 262.02,320.02 260.91,320.31 C259.86,320.59 258.73,320.37 258.40,319.84 C258.07,319.30 257.28,319.05 256.65,319.29 C256.02,319.52 254.61,318.85 253.51,317.80 C251.53,315.88 251.53,315.88 253.51,316.51 C254.86,316.94 254.71,316.66 253.01,315.66 C251.64,314.84 250.18,314.39 249.76,314.65 C249.34,314.91 249.00,314.64 249.00,314.06 C249.00,313.48 248.66,313.07 248.25,313.16 C246.99,313.44 241.58,311.79 240.22,310.71 C239.51,310.16 238.98,308.08 239.03,306.10 C239.18,300.70 238.67,299.29 235.29,295.74 C232.27,292.59 232.19,292.24 232.14,282.85 L 232.09 273.20 L 234.92 272.03 C237.58,270.93 241.09,265.02 241.48,261.00 C241.73,258.38 243.18,255.99 244.15,256.59 C244.67,256.91 245.63,256.77 246.29,256.27 C246.96,255.77 248.80,255.28 250.40,255.18 C254.08,254.95 256.20,253.21 255.50,251.00 C254.68,248.43 257.37,246.59 259.94,247.97 C261.42,248.76 262.00,248.77 262.00,247.98 C262.00,247.37 262.45,247.16 263.00,247.50 C263.55,247.84 264.00,247.68 264.00,247.15 C264.00,246.62 264.79,246.39 265.75,246.64 C266.73,246.89 270.44,245.15 274.21,242.67 C277.90,240.24 281.16,238.49 281.46,238.79 C281.76,239.09 282.04,238.25 282.08,236.92 C282.12,235.59 282.38,235.04 282.64,235.69 C282.91,236.35 283.81,236.63 284.65,236.30 C285.84,235.85 285.89,235.55 284.89,234.93 C282.80,233.64 288.00,229.93 290.23,231.12 C292.15,232.15 296.30,230.01 297.99,227.12 C298.71,225.89 298.95,225.84 298.97,226.90 C298.99,228.07 299.30,228.05 300.75,226.79 C301.71,225.95 303.79,224.96 305.37,224.58 C308.86,223.75 311.37,221.42 310.69,219.63 C309.81,217.35 311.64,215.76 315.64,215.32 C320.21,214.82 321.76,213.62 320.21,211.76 C318.06,209.16 320.49,207.91 328.09,207.70 C332.16,207.59 335.54,207.05 335.58,206.50 C335.63,205.95 336.02,204.23 336.46,202.67 C337.06,200.55 337.73,199.96 339.13,200.32 C340.16,200.59 341.00,200.35 341.00,199.78 C341.00,199.12 341.48,199.15 342.34,199.87 C343.08,200.48 343.94,200.73 344.25,200.42 C344.56,200.11 346.27,199.62 348.06,199.34 C349.85,199.06 352.48,198.05 353.90,197.10 C355.33,196.15 357.89,194.43 359.58,193.28 C363.41,190.68 367.38,190.25 372.25,191.89 C374.84,192.77 376.00,193.75 376.00,195.08 C376.00,196.13 375.55,197.00 375.00,197.00 C374.45,197.00 374.00,198.12 374.00,199.50 C374.00,200.88 374.45,202.00 375.00,202.00 C376.32,202.00 376.32,221.03 375.00,224.50 C374.45,225.94 373.55,226.84 373.00,226.50 C372.45,226.16 372.00,226.29 372.00,226.79 C372.00,228.12 368.73,231.45 367.07,231.81 C364.57,232.35 359.95,236.11 360.57,237.11 C360.89,237.63 362.70,237.77 364.59,237.42 C366.82,237.00 368.58,237.24 369.62,238.10 C370.50,238.83 372.18,239.91 373.36,240.50 C375.25,241.45 375.48,242.32 375.30,248.03 C374.92,260.39 373.36,270.43 371.21,274.37 C369.84,276.88 369.29,279.20 369.65,281.00 C369.97,282.62 369.59,284.74 368.72,286.13 C366.80,289.20 365.57,301.00 367.17,301.00 C367.84,301.00 367.62,301.76 366.65,302.83 C364.59,305.11 364.56,306.70 366.56,308.70 C367.41,309.56 367.87,310.91 367.56,311.70 C366.10,315.51 372.49,320.23 378.57,319.82 C381.83,319.60 383.94,320.94 383.98,323.25 C384.01,324.46 382.20,324.11 381.78,322.83 C381.56,322.17 379.71,321.72 377.58,321.80 C375.48,321.88 372.82,321.28 371.66,320.47 C370.50,319.66 368.80,319.00 367.88,319.00 C366.07,319.00 364.97,317.04 364.41,312.77 C363.96,309.39 359.94,303.03 358.25,303.01 C357.56,303.01 357.00,302.10 357.00,301.00 C357.00,298.93 359.41,298.24 360.50,300.00 C360.84,300.55 361.77,301.00 362.56,301.00 C363.62,301.00 364.00,299.69 364.00,296.05 C364.00,291.32 365.52,286.18 367.28,284.91 C368.25,284.21 367.87,281.77 366.65,280.88 C366.18,280.53 366.97,278.16 368.40,275.59 C370.87,271.15 371.00,270.21 371.00,256.09 C371.00,245.41 370.65,240.97 369.75,240.26 C369.06,239.72 365.65,238.99 362.16,238.64 C354.20,237.85 352.92,237.07 356.86,235.42 C358.56,234.70 360.96,233.19 362.17,232.06 C363.38,230.93 365.18,230.00 366.17,230.00 C368.59,230.00 371.33,225.62 370.52,223.05 C370.16,221.92 369.42,221.00 368.88,221.00 C368.28,221.00 367.96,215.86 368.06,207.75 C368.20,195.46 368.08,194.50 366.36,194.46 C365.33,194.44 363.94,194.08 363.25,193.65 C362.56,193.23 362.00,193.32 362.00,193.86 C362.00,194.40 360.42,195.37 358.49,196.00 C356.56,196.64 354.52,198.02 353.96,199.08 C353.39,200.14 352.16,201.00 351.21,201.00 C350.27,201.01 347.48,202.38 345.00,204.05 C341.01,206.74 338.62,208.00 329.75,212.08 C321.23,216.01 315.35,219.82 314.25,222.14 C313.56,223.59 311.45,225.51 309.55,226.41 C307.65,227.31 304.72,229.21 303.03,230.63 C301.35,232.04 299.33,232.96 298.56,232.66 C295.53,231.50 284.03,237.52 283.97,240.30 C283.96,240.96 282.27,242.28 280.22,243.23 C278.18,244.18 275.19,246.09 273.59,247.48 C272.00,248.87 269.97,250.01 269.09,250.02 C268.22,250.03 266.38,250.92 265.00,252.00 C263.62,253.08 261.74,253.97 260.81,253.98 C259.88,253.99 258.84,254.45 258.50,255.01 C258.15,255.56 254.75,258.05 250.94,260.54 C245.84,263.87 243.59,266.05 242.46,268.75 C241.61,270.77 240.38,272.76 239.72,273.17 C239.00,273.62 238.37,277.14 238.15,281.96 C237.95,286.38 237.39,290.00 236.89,290.00 C235.18,290.00 236.02,292.87 238.25,294.68 C241.30,297.14 243.42,301.98 242.05,303.35 C240.68,304.72 245.63,310.00 248.30,310.00 C249.36,310.00 252.31,311.70 254.86,313.78 C257.41,315.86 261.30,318.17 263.50,318.91 C265.70,319.65 269.52,321.67 272.00,323.38 C274.48,325.10 277.17,326.65 278.00,326.83 C280.47,327.38 288.95,334.27 289.57,336.24 C289.89,337.24 291.17,339.16 292.40,340.49 C294.09,342.31 294.71,344.31 294.88,348.46 C295.01,351.81 294.69,354.00 294.05,354.00 C293.47,354.00 293.00,354.64 293.00,355.43 C293.00,356.21 292.44,357.45 291.75,358.18 C291.06,358.91 290.34,360.62 290.15,362.00 C289.61,365.82 288.23,367.83 285.00,369.50 C281.93,371.09 279.06,375.00 280.96,375.00 C281.60,375.00 282.00,378.31 282.00,383.50 C282.00,388.17 281.66,392.00 281.24,392.00 C280.83,392.00 279.94,390.76 279.27,389.24 ZM 334.00 381.94 C334.00,381.36 333.44,381.21 332.75,381.60 C332.06,382.00 332.59,381.12 333.92,379.66 C335.26,378.20 335.93,376.97 335.42,376.94 C334.92,376.90 335.55,376.45 336.84,375.93 C338.13,375.42 339.42,374.10 339.71,373.00 C340.06,371.66 341.11,370.98 342.87,370.93 C344.31,370.90 347.98,370.05 351.00,369.05 C356.19,367.34 356.49,367.05 356.35,364.08 C356.07,358.39 355.08,356.00 352.98,356.00 C350.70,356.00 350.35,353.78 352.37,352.11 C353.41,351.25 354.03,351.34 354.98,352.48 C355.67,353.30 356.63,353.73 357.11,353.43 C358.39,352.64 358.21,348.00 356.89,348.00 C356.28,348.00 356.05,347.30 356.38,346.45 C356.73,345.53 355.95,343.78 354.49,342.21 C353.12,340.73 352.00,338.95 352.00,338.26 C352.00,337.52 350.74,337.00 348.96,337.00 C346.29,337.00 346.05,336.77 346.95,335.10 C347.94,333.25 348.06,333.25 351.53,335.01 C357.02,337.82 358.00,338.97 358.00,342.67 C358.00,344.97 358.80,346.90 360.45,348.54 C362.77,350.86 365.49,357.84 364.48,358.85 C364.22,359.11 363.19,358.57 362.18,357.66 C358.37,354.22 356.96,355.96 357.75,363.14 C358.19,367.17 357.87,368.27 355.38,371.39 C353.35,373.93 351.70,375.00 349.81,375.00 C348.24,375.00 346.52,375.84 345.70,377.02 C344.81,378.29 343.67,378.81 342.65,378.42 C341.59,378.01 340.78,378.44 340.33,379.65 C339.95,380.67 339.16,381.83 338.57,382.23 C336.96,383.34 334.00,383.15 334.00,381.94 ZM 341.75 366.41 C341.41,366.07 341.52,364.76 342.00,363.49 C343.14,360.51 342.20,351.93 340.53,350.00 C339.82,349.17 338.93,347.49 338.55,346.25 C338.17,345.01 337.49,344.00 337.03,344.00 C335.96,344.00 326.00,334.26 326.00,333.22 C326.00,332.78 323.41,330.87 320.25,328.98 C317.09,327.08 314.01,324.90 313.41,324.12 C312.75,323.27 311.28,322.90 309.73,323.20 C307.59,323.61 307.03,323.25 306.49,321.10 C305.47,317.04 304.15,315.89 302.02,317.22 C300.59,318.11 299.85,318.00 298.53,316.68 C297.61,315.75 296.33,314.99 295.68,314.97 C293.83,314.92 287.91,309.13 287.49,306.96 C287.28,305.88 286.44,303.77 285.61,302.25 C284.79,300.74 283.37,297.85 282.48,295.83 C280.91,292.31 280.93,292.07 282.92,290.08 C284.07,288.93 285.00,287.32 285.00,286.48 C285.00,283.24 287.51,277.16 289.31,276.04 C290.84,275.08 291.06,275.11 290.45,276.18 C290.03,276.90 290.60,276.60 291.72,275.50 C292.83,274.40 293.57,273.19 293.35,272.81 C292.94,272.08 301.94,267.57 303.25,267.84 C303.66,267.93 304.00,267.57 304.00,267.05 C304.00,266.02 311.08,263.75 311.86,264.53 C312.12,264.79 311.82,265.00 311.19,265.00 C310.37,265.00 310.33,265.74 311.04,267.61 C311.83,269.68 311.61,270.90 309.93,273.61 C308.78,275.47 307.20,277.00 306.42,277.00 C305.64,277.00 305.05,277.34 305.12,277.75 C305.18,278.16 305.18,279.84 305.12,281.47 L 305.00 284.45 L 303.37 282.12 C301.77,279.83 302.02,277.66 304.69,271.13 C305.11,270.08 304.83,269.99 303.48,270.75 C302.51,271.29 300.89,271.52 299.87,271.26 C297.94,270.75 296.77,272.56 296.56,276.39 C296.36,279.92 295.04,281.13 291.91,280.63 C288.55,280.10 286.00,282.81 286.00,286.89 C286.00,288.24 285.32,290.10 284.48,291.02 C283.12,292.52 283.12,293.01 284.48,295.60 C285.31,297.19 285.99,299.06 285.99,299.75 C286.01,302.02 289.74,304.88 291.93,304.31 C294.45,303.65 297.09,305.60 296.33,307.57 C296.03,308.37 296.38,309.01 297.14,309.02 C298.19,309.03 298.16,309.25 297.00,310.00 C296.17,310.53 295.95,311.02 296.50,311.07 C303.31,311.78 306.77,311.66 308.09,310.68 C310.03,309.23 310.22,305.98 308.32,306.71 C306.25,307.50 303.99,305.05 304.10,302.13 L 304.20 299.50 L 304.89 301.99 C305.28,303.37 306.47,304.64 307.54,304.83 C310.63,305.36 312.11,307.84 310.71,310.10 C309.76,311.61 309.91,312.68 311.44,315.53 C313.51,319.37 315.62,319.71 317.39,316.50 C318.00,315.40 318.60,314.33 318.72,314.12 C318.84,313.91 320.54,315.14 322.50,316.87 C324.46,318.59 326.69,320.00 327.45,320.00 C328.20,320.00 330.02,321.42 331.47,323.15 C333.48,325.53 333.81,326.50 332.85,327.09 C331.35,328.02 329.00,326.37 329.00,324.40 C329.00,322.87 324.68,321.46 323.06,322.46 C321.38,323.50 321.74,327.31 323.45,326.66 C324.33,326.32 325.14,326.87 325.52,328.05 C325.86,329.12 326.58,330.00 327.13,330.00 C327.67,330.00 327.85,330.43 327.53,330.96 C327.20,331.48 328.26,332.60 329.89,333.44 C332.73,334.91 332.93,334.87 335.17,332.22 C338.17,328.67 341.00,329.09 341.00,333.07 C341.00,335.42 340.37,336.25 337.82,337.29 L 334.64 338.59 L 337.56 341.29 C339.17,342.78 340.81,344.00 341.20,344.00 C343.10,344.00 344.22,349.02 344.08,356.88 C343.95,364.90 343.22,367.88 341.75,366.41 ZM 388.25 326.36 C386.46,325.61 385.00,324.74 385.00,324.44 C385.00,324.13 385.45,324.16 386.00,324.50 C386.55,324.84 387.00,324.67 387.00,324.13 C387.00,322.77 390.35,321.81 392.36,322.58 C394.31,323.33 394.50,325.36 392.75,326.74 C391.91,327.40 390.43,327.27 388.25,326.36 ZM 303.65 295.59 C301.79,292.75 301.41,286.00 303.11,286.00 C303.81,286.00 303.97,286.97 303.56,288.63 C303.07,290.59 303.47,291.87 305.13,293.64 C306.68,295.29 307.05,296.35 306.34,297.06 C305.62,297.78 304.79,297.33 303.65,295.59 ZM 317.44 262.90 C317.12,262.39 316.33,262.28 315.68,262.66 C315.03,263.03 315.35,262.38 316.38,261.20 C317.42,260.01 318.62,259.27 319.06,259.54 C319.50,259.81 320.13,259.17 320.46,258.12 C320.79,257.07 322.49,255.63 324.23,254.91 C325.97,254.18 328.83,252.33 330.59,250.79 C333.75,248.01 337.00,247.84 337.00,250.45 C337.00,252.51 333.06,255.41 330.20,255.45 C328.46,255.48 327.18,256.24 326.59,257.56 C325.52,260.01 318.26,264.24 317.44,262.90 ZM 343.57 247.11 C343.26,246.62 344.09,245.94 345.40,245.62 C347.71,245.03 349.68,240.92 348.54,239.06 C347.87,237.97 350.39,236.97 351.59,237.84 C352.10,238.20 352.65,239.71 352.82,241.20 C353.08,243.50 352.51,244.19 348.88,245.95 C343.95,248.33 344.28,248.26 343.57,247.11 Z" fill="rgb(253,253,253)"/>
</g>
</svg>